<svg xmlns="http://www.w3.org/2000/svg" xmlns:xlink="http://www.w3.org/1999/xlink" xmlns:lucid="lucid" width="2759.4" height="2056.87"><g transform="translate(1181.796700897992 2283.0120714550676)" lucid:page-tab-id="PyAyD4LOk9u4O"><path d="M-1500-2500h3500V0h-3500z" fill="#f2f3f5"/><path d="M52.65-1979.72a12 12 0 0 1 12-12H1564.6a12 12 0 0 1 12 12v1112.16a12 12 0 0 1-12 12H64.65a12 12 0 0 1-12-12z" stroke="#000" stroke-width="2" fill="#f4d9ff"/><path d="M52.65-1930.83H1576.6" stroke="#000" stroke-width="2" fill="none"/><use xlink:href="#a" transform="matrix(1,0,0,1,76.65328658586265,-1975.7196239795194) translate(0 24.88888888888889)"/><use xlink:href="#b" transform="matrix(1,0,0,1,76.65328658586265,-1975.7196239795194) translate(553.0864197530866 24.88888888888889)"/><use xlink:href="#c" transform="matrix(1,0,0,1,76.65328658586265,-1975.7196239795194) translate(689.1975308641977 24.88888888888889)"/><path d="M-1180.8-1979.72a12 12 0 0 1 12-12H20.1a12 12 0 0 1 12 12v1112.16a12 12 0 0 1-12 12h-1188.9a12 12 0 0 1-12-12z" stroke="#000" stroke-width="2" fill="#dedeff"/><path d="M-1180.8-1930.83H32.1" stroke="#000" stroke-width="2" fill="none"/><use xlink:href="#d" transform="matrix(1,0,0,1,-1156.796700897992,-1975.7196239795194) translate(0 24.88888888888889)"/><use xlink:href="#e" transform="matrix(1,0,0,1,-1156.796700897992,-1975.7196239795194) translate(501.2345679012345 24.88888888888889)"/><use xlink:href="#c" transform="matrix(1,0,0,1,-1156.796700897992,-1975.7196239795194) translate(625.4197530864197 24.88888888888889)"/><path d="M553.17-2282.26h353.97v69.84H553.17z" fill="#fff" fill-opacity="0"/><path d="M561.1-2282.26h338.1c4.4 0 7.94 3.54 7.94 7.93v53.97c0 4.4-3.54 7.94-7.93 7.94H561.1c-4.4 0-7.93-3.54-7.93-7.94v-53.97c0-4.4 3.54-7.93 7.94-7.93z" stroke="#333" stroke-width="1.5" fill="#3cb371"/><use xlink:href="#f" transform="matrix(1,0,0,1,553.1745965802464,-2282.2620714550676) translate(42.014584960937526 43.082958984375)"/><use xlink:href="#g" transform="matrix(1,0,0,1,553.1745965802464,-2282.2620714550676) translate(104.75787597656252 43.082958984375)"/><use xlink:href="#h" transform="matrix(1,0,0,1,553.1745965802464,-2282.2620714550676) translate(193.9742138671875 43.082958984375)"/><use xlink:href="#i" transform="matrix(1,0,0,1,553.1745965802464,-2282.2620714550676) translate(247.7014794921875 43.082958984375)"/><path d="M615.08-2136.5h230.16v107.93H615.08z" fill="#fff" fill-opacity="0"/><path d="M730.16-2028.57l115.08-53.97-115.08-53.97-115.08 53.96z" stroke="#333" stroke-width="1.5" fill="#4682b4"/><use xlink:href="#j" transform="matrix(1,0,0,1,615.079357747046,-2136.5079078598565) translate(16.453916015624998 62.082958984375)"/><use xlink:href="#k" transform="matrix(1,0,0,1,615.079357747046,-2136.5079078598565) translate(40.39900390625 62.082958984375)"/><use xlink:href="#l" transform="matrix(1,0,0,1,615.079357747046,-2136.5079078598565) translate(110.93231445312499 62.082958984375)"/><use xlink:href="#m" transform="matrix(1,0,0,1,615.079357747046,-2136.5079078598565) translate(135.691123046875 62.082958984375)"/><path d="M968.25-2117.46h280.96v69.84H968.26z" fill="#fff" fill-opacity="0"/><path d="M976.2-2117.46h265.07c4.4 0 7.94 3.54 7.94 7.94v53.96c0 4.4-3.53 7.94-7.93 7.94H976.2c-4.4 0-7.95-3.54-7.95-7.94v-53.96c0-4.4 3.54-7.94 7.94-7.94z" stroke="#333" stroke-width="1.5" fill="#3cb371"/><use xlink:href="#n" transform="matrix(1,0,0,1,968.2539567114786,-2117.460289039303) translate(26.725571289062515 43.082958984375)"/><use xlink:href="#o" transform="matrix(1,0,0,1,968.2539567114786,-2117.460289039303) translate(102.1520556640625 43.082958984375)"/><use xlink:href="#p" transform="matrix(1,0,0,1,968.2539567114786,-2117.460289039303) translate(189.5022607421875 43.082958984375)"/><path d="M1317.46-2117.46h80.95v69.84h-80.94z" fill="#fff" fill-opacity="0"/><path d="M1325.4-2117.46h65.08c4.4 0 7.93 3.54 7.93 7.94v53.96c0 4.4-3.53 7.94-7.92 7.94h-65.08c-4.4 0-7.94-3.54-7.94-7.94v-53.96c0-4.4 3.54-7.94 7.94-7.94z" stroke="#333" stroke-width="1.5" fill="#c21807"/><use xlink:href="#q" transform="matrix(1,0,0,1,1317.460301754963,-2117.460289039303) translate(20.4553466796875 43.082958984375)"/><path d="M514.96-1916.17h485.7v142.86h-485.7z" fill="#fff" fill-opacity="0"/><path d="M757.8-1773.3l242.87-71.44-242.86-71.43-242.84 71.43z" stroke="#333" stroke-width="1.5" fill="khaki"/><use xlink:href="#r" transform="matrix(1,0,0,1,514.9569439461934,-1916.1700477595207) translate(24.05488281250001 79.582958984375)"/><use xlink:href="#s" transform="matrix(1,0,0,1,514.9569439461934,-1916.1700477595207) translate(94.588193359375 79.582958984375)"/><use xlink:href="#t" transform="matrix(1,0,0,1,514.9569439461934,-1916.1700477595207) translate(173.5191015625 79.582958984375)"/><use xlink:href="#u" transform="matrix(1,0,0,1,514.9569439461934,-1916.1700477595207) translate(209.17091796875 79.582958984375)"/><path d="M52.65-1707.58h377.78v142.86H52.65z" fill="#fff" fill-opacity="0"/><path d="M241.54-1564.72l188.9-71.43-188.9-71.43-188.9 71.43z" stroke="#333" stroke-width="1.5" fill="khaki"/><use xlink:href="#j" transform="matrix(1,0,0,1,52.653286585862645,-1707.5808244456473) translate(62.79191894531252 79.582958984375)"/><use xlink:href="#v" transform="matrix(1,0,0,1,52.653286585862645,-1707.5808244456473) translate(86.73700683593752 79.582958984375)"/><use xlink:href="#w" transform="matrix(1,0,0,1,52.653286585862645,-1707.5808244456473) translate(242.94968261718748 79.582958984375)"/><path d="M968.25-1494.77h498.42v142.86H968.25z" fill="#fff" fill-opacity="0"/><path d="M1217.46-1351.9l249.2-71.44-249.2-71.43-249.2 71.43z" stroke="#333" stroke-width="1.5" fill="khaki"/><use xlink:href="#x" transform="matrix(1,0,0,1,968.2539567114786,-1494.7664189045565) translate(119.7983447265625 79.582958984375)"/><use xlink:href="#y" transform="matrix(1,0,0,1,968.2539567114786,-1494.7664189045565) translate(166.7663037109375 79.582958984375)"/><path d="M376.63-1388.52H856v142.86H376.6z" fill="#fff" fill-opacity="0"/><path d="M616.3-1245.66L856-1317.1l-239.7-71.42-239.67 71.43z" stroke="#333" stroke-width="1.5" fill="khaki"/><use xlink:href="#z" transform="matrix(1,0,0,1,376.6247034227091,-1388.5221107074744) translate(120.5675 79.582958984375)"/><use xlink:href="#A" transform="matrix(1,0,0,1,376.6247034227091,-1388.5221107074744) translate(167.535458984375 79.582958984375)"/><path d="M101.07-1142.42h280.95v69.84H101.07z" fill="#fff" fill-opacity="0"/><path d="M109-1142.42h265.08c4.4 0 7.94 3.54 7.94 7.94v53.97c0 4.4-3.54 7.92-7.94 7.92H109c-4.4 0-7.93-3.53-7.93-7.93v-53.98c0-4.4 3.53-7.94 7.93-7.94z" stroke="#333" stroke-width="1.5" fill="#add8e6"/><use xlink:href="#B" transform="matrix(1,0,0,1,101.06597322301991,-1142.4168334757296) translate(22.526772460937508 43.082958984375)"/><use xlink:href="#C" transform="matrix(1,0,0,1,101.06597322301991,-1142.4168334757296) translate(89.2193212890625 43.082958984375)"/><use xlink:href="#D" transform="matrix(1,0,0,1,101.06597322301991,-1142.4168334757296) translate(115.84426269531251 43.082958984375)"/><use xlink:href="#E" transform="matrix(1,0,0,1,101.06597322301991,-1142.4168334757296) translate(193.1368798828125 43.082958984375)"/><path d="M589.68-1137.73h280.96v69.84H589.67z" fill="#fff" fill-opacity="0"/><path d="M597.62-1137.73H862.7c4.4 0 7.93 3.54 7.93 7.94v53.98c0 4.4-3.53 7.93-7.93 7.93H597.62c-4.4 0-7.94-3.53-7.94-7.92v-53.97c0-4.4 3.54-7.93 7.94-7.93z" stroke="#333" stroke-width="1.5" fill="#87ceeb"/><use xlink:href="#B" transform="matrix(1,0,0,1,589.6825326529743,-1137.728490255327) translate(15.740341796875015 43.082958984375)"/><use xlink:href="#C" transform="matrix(1,0,0,1,589.6825326529743,-1137.728490255327) translate(82.43289062500001 43.082958984375)"/><use xlink:href="#F" transform="matrix(1,0,0,1,589.6825326529743,-1137.728490255327) translate(109.05783203125002 43.082958984375)"/><use xlink:href="#E" transform="matrix(1,0,0,1,589.6825326529743,-1137.728490255327) translate(199.923310546875 43.082958984375)"/><path d="M1076.98-1142.42h280.96v69.84h-280.96z" fill="#fff" fill-opacity="0"/><path d="M1084.92-1142.42H1350c4.4 0 7.94 3.54 7.94 7.94v53.97c0 4.4-3.54 7.92-7.94 7.92h-265.08c-4.4 0-7.94-3.53-7.94-7.93v-53.98c0-4.4 3.54-7.94 7.94-7.94z" stroke="#333" stroke-width="1.5" fill="#6495ed"/><use xlink:href="#B" transform="matrix(1,0,0,1,1076.9841029470558,-1142.4168334757296) translate(4.907006835937523 43.082958984375)"/><use xlink:href="#C" transform="matrix(1,0,0,1,1076.9841029470558,-1142.4168334757296) translate(71.59955566406252 43.082958984375)"/><use xlink:href="#G" transform="matrix(1,0,0,1,1076.9841029470558,-1142.4168334757296) translate(98.22449707031252 43.082958984375)"/><use xlink:href="#E" transform="matrix(1,0,0,1,1076.9841029470558,-1142.4168334757296) translate(210.7566455078125 43.082958984375)"/><path d="M546.03-943.82h370.34v69.84H546.03z" fill="#fff" fill-opacity="0"/><path d="M558.98-943.82h344.44c7.18 0 12.95 3.54 12.95 7.93v53.98c0 4.4-5.77 7.94-12.95 7.94H558.98c-7.18 0-12.95-3.54-12.95-7.94v-53.97c0-4.38 5.77-7.92 12.95-7.92z" stroke="#333" stroke-width="1.5" fill="plum"/><use xlink:href="#H" transform="matrix(1,0,0,1,546.0317395225388,-943.8231493781636) translate(0 42.76041666666667)"/><use xlink:href="#I" transform="matrix(1,0,0,1,546.0317395225388,-943.8231493781636) translate(6.000000000000001 42.76041666666667)"/><use xlink:href="#J" transform="matrix(1,0,0,1,546.0317395225388,-943.8231493781636) translate(92.4375 42.76041666666667)"/><use xlink:href="#K" transform="matrix(1,0,0,1,546.0317395225388,-943.8231493781636) translate(160.15625 42.76041666666667)"/><use xlink:href="#L" transform="matrix(1,0,0,1,546.0317395225388,-943.8231493781636) translate(208.375 42.76041666666667)"/><use xlink:href="#M" transform="matrix(1,0,0,1,546.0317395225388,-943.8231493781636) translate(302.5625 42.76041666666667)"/><path d="M546.03-815.87H914.3v107.93H546.02z" fill="#fff" fill-opacity="0"/><path d="M730.16-707.94L914.3-761.9l-184.14-53.97-184.13 53.97z" stroke="#333" stroke-width="1.5" fill="#4682b4"/><use xlink:href="#j" transform="matrix(1,0,0,1,546.0317395225388,-815.8729874724891) translate(31.894819335937484 62.082958984375)"/><use xlink:href="#N" transform="matrix(1,0,0,1,546.0317395225388,-815.8729874724891) translate(55.83990722656249 62.082958984375)"/><use xlink:href="#O" transform="matrix(1,0,0,1,546.0317395225388,-815.8729874724891) translate(126.86145019531249 62.082958984375)"/><use xlink:href="#P" transform="matrix(1,0,0,1,546.0317395225388,-815.8729874724891) translate(206.67117675781247 62.082958984375)"/><path d="M1090.27-796.83h280.95v69.85h-280.95z" fill="#fff" fill-opacity="0"/><path d="M1098.2-796.83h265.1c4.38 0 7.92 3.54 7.92 7.94v53.98c0 4.4-3.54 7.94-7.93 7.94h-265.1c-4.4 0-7.93-3.54-7.93-7.94v-53.97c0-4.4 3.54-7.93 7.93-7.93z" stroke="#333" stroke-width="1.5" fill="#98fb98"/><use xlink:href="#Q" transform="matrix(1,0,0,1,1090.268656463982,-796.8253841475812) translate(27.94615234375 43.082958984375)"/><use xlink:href="#N" transform="matrix(1,0,0,1,1090.268656463982,-796.8253841475812) translate(89.778076171875 43.082958984375)"/><use xlink:href="#l" transform="matrix(1,0,0,1,1090.268656463982,-796.8253841475812) translate(160.799619140625 43.082958984375)"/><use xlink:href="#R" transform="matrix(1,0,0,1,1090.268656463982,-796.8253841475812) translate(185.55842773437502 43.082958984375)"/><path d="M1090.27-606.7h280.95v69.83h-280.95z" fill="#fff" fill-opacity="0"/><path d="M1098.2-606.7h265.1c4.38 0 7.92 3.53 7.92 7.93v53.96c0 4.4-3.54 7.93-7.93 7.93h-265.1c-4.4 0-7.93-3.54-7.93-7.94v-53.98c0-4.4 3.54-7.93 7.93-7.93z" stroke="#333" stroke-width="1.5" fill="#90ee90"/><use xlink:href="#n" transform="matrix(1,0,0,1,1090.268656463982,-606.7111688727337) translate(29.172158203125008 43.082958984375)"/><use xlink:href="#N" transform="matrix(1,0,0,1,1090.268656463982,-606.7111688727337) translate(104.598642578125 43.082958984375)"/><use xlink:href="#C" transform="matrix(1,0,0,1,1090.268656463982,-606.7111688727337) translate(175.62018554687498 43.082958984375)"/><use xlink:href="#S" transform="matrix(1,0,0,1,1090.268656463982,-606.7111688727337) translate(202.24512695312498 43.082958984375)"/><path d="M577.78-644.8h304.76v107.93H577.78z" fill="#fff" fill-opacity="0"/><path d="M730.16-536.87l152.38-53.97-152.38-53.97-152.38 53.96z" stroke="#333" stroke-width="1.5" fill="#daa520"/><use xlink:href="#T" transform="matrix(1,0,0,1,577.7777820885449,-644.8063755225494) translate(45.951411132812495 62.082958984375)"/><use xlink:href="#U" transform="matrix(1,0,0,1,577.7777820885449,-644.8063755225494) translate(94.03687988281249 62.082958984375)"/><use xlink:href="#V" transform="matrix(1,0,0,1,577.7777820885449,-644.8063755225494) translate(112.9368994140625 62.082958984375)"/><use xlink:href="#W" transform="matrix(1,0,0,1,577.7777820885449,-644.8063755225494) translate(145.7461181640625 62.082958984375)"/><path d="M-397.2-625.76h280.95v69.84H-397.2z" fill="#fff" fill-opacity="0"/><path d="M-389.26-625.76h265.08c4.4 0 7.94 3.54 7.94 7.94v53.97c0 4.4-3.54 7.93-7.94 7.93h-265.08c-4.4 0-7.94-3.54-7.94-7.93v-53.97c0-4.4 3.54-7.94 7.94-7.94z" stroke="#333" stroke-width="1.5" fill="orange"/><use xlink:href="#X" transform="matrix(1,0,0,1,-397.19707771924385,-625.7587721976415) translate(0 29.640292968750003)"/><use xlink:href="#C" transform="matrix(1,0,0,1,-397.19707771924385,-625.7587721976415) translate(94.58689453125 29.640292968750003)"/><use xlink:href="#Y" transform="matrix(1,0,0,1,-397.19707771924385,-625.7587721976415) translate(121.2118359375 29.640292968750003)"/><use xlink:href="#Z" transform="matrix(1,0,0,1,-397.19707771924385,-625.7587721976415) translate(176.490595703125 29.640292968750003)"/><use xlink:href="#aa" transform="matrix(1,0,0,1,-397.19707771924385,-625.7587721976415) translate(0 56.525625)"/><path d="M553.17-479.37h353.97v69.85H553.17z" fill="#fff" fill-opacity="0"/><path d="M561.1-479.37h338.1c4.4 0 7.94 3.54 7.94 7.94v53.97c0 4.4-3.54 7.94-7.93 7.94H561.1c-4.4 0-7.93-3.54-7.93-7.94v-53.97c0-4.4 3.54-7.94 7.94-7.94z" stroke="#333" stroke-width="1.5" fill="tomato"/><use xlink:href="#n" transform="matrix(1,0,0,1,553.1745965802464,-479.3650704716865) translate(0 29.640292968750003)"/><use xlink:href="#ab" transform="matrix(1,0,0,1,553.1745965802464,-479.3650704716865) translate(75.42648437499999 29.640292968750003)"/><use xlink:href="#ac" transform="matrix(1,0,0,1,553.1745965802464,-479.3650704716865) translate(133.42849609374997 29.640292968750003)"/><use xlink:href="#ad" transform="matrix(1,0,0,1,553.1745965802464,-479.3650704716865) translate(161.36624023437497 29.640292968750003)"/><use xlink:href="#ae" transform="matrix(1,0,0,1,553.1745965802464,-479.3650704716865) translate(214.10619140624996 29.640292968750003)"/><use xlink:href="#af" transform="matrix(1,0,0,1,553.1745965802464,-479.3650704716865) translate(0 56.525625)"/><path d="M689.68-296.73h80.96v69.84h-80.96z" fill="#fff" fill-opacity="0"/><path d="M697.62-296.73h65.08c4.4 0 7.93 3.54 7.93 7.94v53.97c0 4.4-3.53 7.94-7.93 7.94h-65.08c-4.4 0-7.94-3.53-7.94-7.93v-53.96c0-4.4 3.54-7.93 7.94-7.93z" stroke="#333" stroke-width="1.5" fill="#c21807"/><use xlink:href="#q" transform="matrix(1,0,0,1,689.6825326529743,-296.7307865941093) translate(20.4553466796875 43.082958984375)"/><path d="M730.16-2210.17v71.33" stroke="#000" stroke-width="3" stroke-linejoin="round" fill="none"/><path d="M731.63-2210.13h-2.95v-1.54h2.95zM731.63-2136.64l-1.47-.7-1.48.7v-2.24h2.95z" stroke="#000" stroke-width=".05"/><path d="M846.74-2082.54H966" stroke="#000" stroke-width="3" stroke-linejoin="round" fill="none"/><path d="M846.78-2081.07h-1.54v-.64l1.54-.73zm0-2.94v1.35l-1.54-.72v-.64zM967.5-2081.07h-1.53v-2.94h1.53z" stroke="#000" stroke-width=".05"/><path d="M1251.46-2082.54h63.75" stroke="#000" stroke-width="3" stroke-linejoin="round" fill="none"/><path d="M1251.5-2081.07h-1.54v-2.94h1.54zM1316.7-2081.07h-1.53v-2.94h1.54zM488.73-2084v2.93H374.5v242.3h96.32v-7.45h24v2.95h-21.05v7.44H371.54V-2084zm124.85 0v2.93h-99.1v-2.94z" stroke="#000" stroke-width=".05"/><path d="M615.08-2081.7v.63h-1.54v-1.36zm0-2.32v.65l-1.54.72v-1.36z"/><path stroke="#000" stroke-width=".05"/><path d="M509.3-1844.74l-13 7.5v-15z"/><path d="M512.25-1844.74l-17.42 10.05v-20.1zm-14.47 4.94l8.57-4.94-8.57-4.95z" stroke="#000" stroke-width=".05"/><use xlink:href="#ag" transform="matrix(1,0,0,1,488.7264061383357,-2094.0586446037305) translate(0 18.445)"/><path d="M243.02-1144.67h-2.95v-245.53h2.95zm0-267.13h-2.95v-150.62h2.95z" stroke="#000" stroke-width=".05"/><path d="M243.02-1562.38h-2.95v-2.1l1.47.56 1.48-.56z"/><path stroke="#000" stroke-width=".05"/><path d="M243.02-1143.17h-2.95v-1.53h2.95z"/><path stroke="#000" stroke-width=".05"/><use xlink:href="#ah" transform="matrix(1,0,0,1,226.8671732230199,-1411.7972913432063) translate(0 14.4)"/><path d="M1218.93-1160.66h-2.95v-90.45h2.95zm0-112.05h-2.95v-76.93h2.95z" stroke="#000" stroke-width=".05"/><path d="M1218.93-1349.6h-2.95v-1.95l1.48.42 1.47-.42z"/><path stroke="#000" stroke-width=".05"/><path d="M1217.46-1146.17l-7.5-13h15z"/><path d="M1217.46-1143.22l-10.05-17.4h20.12zm-4.94-14.46l4.94 8.56 4.95-8.56z" stroke="#000" stroke-width=".05"/><use xlink:href="#ah" transform="matrix(1,0,0,1,1202.785302947056,-1272.7109141611793) translate(0 14.4)"/><path d="M731.63-1193.15v37.18h-2.95v-34.23h-39.14v-2.95zm-74.7 0v2.95h-42.1v-53.18h2.95v50.23z" stroke="#000" stroke-width=".05"/><path d="M616.3-1244.88l1.48-.44v1.98h-2.95v-1.98z"/><path stroke="#000" stroke-width=".05"/><path d="M730.16-1141.48l-7.5-13h15z"/><path d="M730.16-1138.53l-10.06-17.4h20.1zM725.2-1153l4.96 8.57 4.94-8.56z" stroke="#000" stroke-width=".05"/><use xlink:href="#ai" transform="matrix(1,0,0,1,656.926267700492,-1203.199260071609) translate(0 18.445)"/><path d="M241.63-1070.33v.05l.1.5.08.52.13.52.15.52.17.53.2.55.23.55.27.56.3.6.35.6.4.6.45.66.52.68.6.72.68.76.8.8.9.87 1.1.93 1.26 1 1.53 1.1 1.83 1.22 2.22 1.35 2.75 1.5 3.46 1.72 4.43 1.97 5.85 2.3 7.94 2.76 11.26 3.4 16.95 4.3 28.16 5.93 59.2 9.8 240.15 34.34 28.17 5.92 16.94 4.32 11.26 3.38 7.95 2.75 5.84 2.3 4.45 1.98 3.46 1.7 2.76 1.52 2.23 1.35 1.8 1.2 1.53 1.1 1.27 1.02 1.08.93.92.86.8.82.68.76.6.72.5.68.47.65.4.63.34.6.3.58.26.56.23.55.2.54.16.52.15.52.13.52.1.5.08.52v.05" stroke="#000" stroke-width="3" stroke-linejoin="round" fill="none"/><path d="M243.05-1070.32l-2.95.07-.03-1.58h2.95zM732.68-944.57h-2.95v-1.54h2.95z" stroke="#000" stroke-width=".05"/><path d="M730.17-1065.63l.88 103.57" stroke="#000" stroke-width="3" stroke-linejoin="round" fill="none"/><path d="M731.65-1065.6l-2.95.02-.02-1.56h2.95z" stroke="#000" stroke-width=".05"/><path d="M731.18-947.57l-7.6-12.93 15-.13z" stroke="#000" stroke-width="3"/><path d="M1217.37-1070.33v.06l-.08.5-.1.53-.13.52-.15.52-.17.54-.2.54-.24.55-.26.57-.3.6-.35.6-.4.62-.47.65-.52.7-.6.7-.67.78-.8.8-.93.88-1.08.93-1.28 1.02-1.53 1.1-1.82 1.22-2.24 1.35-2.76 1.52-3.48 1.72-4.46 1.97-5.87 2.32-7.97 2.75-11.3 3.4-17.04 4.34-28.34 5.95-60.04 9.94-234.94 33.75-28.34 5.96-17.03 4.35-11.3 3.4-7.98 2.76-5.88 2.33-4.46 1.98-3.48 1.73-2.76 1.52-2.24 1.35-1.83 1.22-1.33.96" stroke="#000" stroke-width="3" stroke-linejoin="round" fill="none"/><path d="M1218.9-1070.25l-2.95-.07.03-1.5h2.96z" stroke="#000" stroke-width=".05"/><path d="M732.8-947.1l.62-15 12.67 8.03z" stroke="#000" stroke-width="3"/><path d="M731.12-871.73l-.88 15.3" stroke="#000" stroke-width="3" stroke-linejoin="round" fill="none"/><path d="M732.6-871.6l-2.96-.18.08-1.45h2.96z" stroke="#000" stroke-width=".05"/><path d="M730.25-856.47l-.1 1.54" stroke="#000" stroke-width="3" fill="none"/><path d="M915.8-761.9h57.82" stroke="#000" stroke-width="3" stroke-linejoin="round" fill="none"/><path d="M915.83-760.43h-1.54v-.7l1.53-.44zm0-1.8l-1.54-.46v-.68h1.53zM975.12-760.43h-1.54v-2.95h1.54z" stroke="#000" stroke-width=".05"/><path d="M1009.43-761.9h62.6" stroke="#000" stroke-width="3" fill="none"/><path d="M1009.47-760.43h-1.54v-2.95h1.54z" stroke="#000" stroke-width=".05"/><path d="M1086.52-761.9l-13 7.5v-15z" stroke="#000" stroke-width="3"/><path d="M1230.74-724.73v99.78" stroke="#000" stroke-width="3" fill="none"/><path d="M1232.22-724.7h-2.95v-1.53h2.95z" stroke="#000" stroke-width=".05"/><path d="M1230.74-610.46l-7.5-13h15z" stroke="#000" stroke-width="3"/><path d="M734.38-680.86v18.56h-2.95v-15.6H581.8v-2.96zm-335.1-79.57v79.57h159.57v2.96h-162.5v-85.48h148.18v2.95z" stroke="#000" stroke-width=".05"/><path d="M546.03-761.12v.7h-1.54v-1.15zm0-1.57l-1.54.47v-1.15h1.53z"/><path stroke="#000" stroke-width=".05"/><path d="M732.9-647.8l-7.5-13h15z"/><path d="M732.9-644.86l-10.05-17.4h20.1zm-4.94-14.46l4.95 8.56 4.95-8.56z" stroke="#000" stroke-width=".05"/><use xlink:href="#aj" transform="matrix(1,0,0,1,558.8456143600514,-690.1801696966309) translate(0 14.4)"/><path d="M730.16-534.57V-497.6" stroke="#000" stroke-width="3" fill="none"/><path d="M731.63-534.54h-2.95v-2.06l1.48.53 1.47-.53z" stroke="#000" stroke-width=".05"/><path d="M730.16-483.12l-7.5-13h15z" stroke="#000" stroke-width="3"/><path d="M730.16-407.27v92.3" stroke="#000" stroke-width="3" fill="none"/><path d="M731.63-407.24h-2.95v-1.53h2.95z" stroke="#000" stroke-width=".05"/><path d="M730.16-300.48l-7.5-13h15z" stroke="#000" stroke-width="3"/><path d="M739.97-528.17h25.77v23.05h-25.77z" fill="none"/><use xlink:href="#ag" transform="matrix(1,0,0,1,739.9646155467611,-528.1714993151311) translate(0 18.926171875)"/><path d="M975.12-773.43h32.8v23.05h-32.8z" fill="none"/><use xlink:href="#ak" transform="matrix(1,0,0,1,975.1185480140389,-773.4285622725812) translate(0 18.926171875)"/><path d="M906.7-2109.12h32.82v23.04h-32.8z" fill="none"/><use xlink:href="#ak" transform="matrix(1,0,0,1,906.7087854066566,-2109.1239265888344) translate(0 18.926171875)"/><path d="M451.3-1771.56H246.58l-.67.06-.6.14-.58.24-.54.33-.48.42-.4.5-.34.52-.24.6-.15.6-.05.67v43.13h-1.95v-43.2l.07-.9.22-.9.36-.88.5-.8.6-.7.7-.62.8-.5.88-.35.9-.22.9-.07h204.8zm305.5 0H483.9v-1.95h272.9z" stroke="#000" stroke-width=".05"/><path d="M760.8-1771.56h-4v-1.27l1 .3 2.67-.78h.34z"/><path stroke="#000" stroke-width=".05"/><path d="M241.54-1710.38l-7.5-13h15z"/><path d="M241.54-1708.43l-9.2-15.92h18.4zm-5.8-13.97l5.8 10.07 5.8-10.07z" stroke="#000" stroke-width=".05"/><use xlink:href="#al" transform="matrix(1,0,0,1,451.2983320112175,-1784.5311400735452) translate(0 16)"/><path d="M1207.3-1542.68l.9.22.87.36.8.5.7.6.62.7.48.8.36.88.22.9.07.9v26.06h-1.95v-25.98l-.05-.67-.15-.62-.24-.58-.33-.54-.4-.48-.48-.4-.54-.34-.58-.24-.6-.15-.68-.05h-105.36v-1.95h105.44zm-178.26 1.88v-1.95h42.57v1.95z" stroke="#000" stroke-width=".05"/><path d="M1029.06-1540.8h-3.7v-.2l2.68-.78-2.7-.78v-.2h3.72z"/><path stroke="#000" stroke-width=".05"/><path d="M1211.36-1496.77l-7.5-13h15z"/><path d="M1211.36-1494.82l-9.2-15.9h18.4zm-5.8-13.96l5.8 10.06 5.8-10.06z" stroke="#000" stroke-width=".05"/><use xlink:href="#ah" transform="matrix(1,0,0,1,1071.6132949767818,-1552.5779353774665) translate(0 14.4)"/><path d="M787.73-1422.36H621.35l-.67.05-.62.14-.58.24-.54.33-.48.42-.4.48-.34.54-.24.58-.14.6-.06.68v13h-1.95v-13.08l.07-.9.22-.9.36-.87.5-.8.6-.72.7-.6.8-.5.88-.35.9-.22.9-.07h166.47zm176.8 0H810.68v-1.95h153.85z" stroke="#000" stroke-width=".05"/><path d="M968.25-1424.12l-2.72.78 2.72.78v.2h-3.74v-1.95h3.75z"/><path stroke="#000" stroke-width=".05"/><path d="M616.3-1391.3l-7.5-13h15z"/><path d="M616.3-1389.36l-9.18-15.9h18.38zm-5.8-13.96l5.8 10.06 5.82-10.06z" stroke="#000" stroke-width=".05"/><use xlink:href="#aj" transform="matrix(1,0,0,1,787.7340987355342,-1434.1378483274725) translate(0 14.4)"/><path d="M859.6-1154.47h-1.96v-32.8h1.95zm0-54.4h-1.96v-107.23h1.95z" stroke="#000" stroke-width=".05"/><path/><path stroke="#000" stroke-width=".05"/><path d="M858.62-1140.48l-7.5-13h15z"/><path d="M858.62-1138.53l-9.2-15.9h18.38zm-5.82-13.96l5.82 10.07 5.8-10.06z" stroke="#000" stroke-width=".05"/><use xlink:href="#am" transform="matrix(1,0,0,1,810.2408207567021,-1208.8691736045316) translate(0 14.4)"/><use xlink:href="#an" transform="matrix(1,0,0,1,810.2408207567021,-1208.8691736045316) translate(27.950000000000003 14.4)"/><path d="M731.2-872.23v26.76a.52.52 0 0 1-.52.53.52.52 0 0 0-.52.52v11.77" stroke="#000" stroke-width="2" fill="none"/><path d="M732.18-872.2h-1.95v-1.03h1.95z" stroke="#000" stroke-width=".05"/><path d="M730.16-818.65l-7.5-13h15z" stroke="#000" stroke-width="2"/><path d="M488.73-1553.66l.05.67.15.62.24.58.33.54.4.48.5.4.53.34.58.24.63.15.66.05h34.17v1.95h-34.25l-.9-.07-.9-.22-.88-.36-.8-.5-.7-.6-.62-.7-.5-.8-.35-.88-.22-.9-.07-.9v-28h1.95zm-5.04-83.4l.9.22.87.36.8.5.7.6.62.7.48.8.36.88.22.9.07.9v28h-1.95v-27.9l-.05-.68-.15-.62-.24-.58-.33-.54-.4-.48-.48-.4-.54-.34-.58-.24-.62-.14-.66-.06h-49.17v-1.95h49.24z" stroke="#000" stroke-width=".05"/><path d="M433.58-1635.18h-3.15v-.17l2.12-.8-2.12-.8v-.18h3.15z"/><path stroke="#000" stroke-width=".05"/><path d="M540.96-1548.62l-13 7.5v-15z"/><path d="M542.9-1548.62l-15.9 9.2v-18.4zm-13.95 5.8l10.06-5.8-10.05-5.8z" stroke="#000" stroke-width=".05"/><use xlink:href="#aj" transform="matrix(1,0,0,1,476.28095174670955,-1603.1874761647427) translate(0 14.4)"/><path d="M215.34-585.86H-99.5v-1.95h314.84zm359.2-4H244.68v-1.95h329.83z" stroke="#000" stroke-width=".05"/><path d="M577.78-591.63l-2.25.8 2.25.8v.17h-3.27v-1.95h3.28z"/><path stroke="#000" stroke-width=".05"/><path d="M-100.5-579.34l-13-7.5 13-7.5z"/><path d="M-99.53-577.65l-15.9-9.2 15.9-9.18zm-12.02-9.2l10.07 5.82v-11.62z" stroke="#000" stroke-width=".05"/><use xlink:href="#ah" transform="matrix(1,0,0,1,215.34327308916957,-599.6380957350954) translate(0 14.4)"/><path d="M1230.72-535.1l-.22 10.63-.7 11.04-1.1 10.53-1.48 10.06-1.84 9.66-2.18 9.3-2.5 9-2.85 8.72-3.15 8.47-3.47 8.28-3.8 8.08-4.15 7.93-4.5 7.8-4.88 7.67-5.28 7.6-5.72 7.52-6.18 7.46-6.7 7.43-7.24 7.4-7.88 7.4-8.56 7.38-9.33 7.4-10.2 7.4-11.16 7.4-12.27 7.44-13.52 7.43-14.95 7.4-16.57 7.4-18.43 7.28-20.55 7.14-22.96 6.93-25.7 6.58-28.73 6.1-32.05 5.4-35.56 4.5-39.02 3.25-42.07 1.75-5.9.06" stroke="#000" stroke-width="2" stroke-linejoin="round" fill="none"/><path d="M1231.7-535.07l-1.95-.04.02-1.02h1.95z" stroke="#000" stroke-width=".05"/><path d="M773.4-254.7l12.9-7.64.15 15z" stroke="#000" stroke-width="2"/><path d="M534.1-1613.2h491.25v142.85H534.1z" fill="#fff" fill-opacity="0"/><path d="M779.73-1470.35l245.62-71.43-245.62-71.43-245.62 71.42z" stroke="#333" stroke-width="1.5" fill="khaki"/><use xlink:href="#ao" transform="matrix(1,0,0,1,534.1072167055315,-1613.2065063824105) translate(20.865180664062507 79.582958984375)"/><use xlink:href="#ap" transform="matrix(1,0,0,1,534.1072167055315,-1613.2065063824105) translate(91.3984912109375 79.582958984375)"/><use xlink:href="#aq" transform="matrix(1,0,0,1,534.1072167055315,-1613.2065063824105) translate(170.3293994140625 79.582958984375)"/><use xlink:href="#ar" transform="matrix(1,0,0,1,534.1072167055315,-1613.2065063824105) translate(205.98121582031249 79.582958984375)"/><path d="M784.38-1693.2l.8.5.7.6.62.72.5.8.35.86.22.92.07.9v58.7h-1.95v-58.63l-.06-.67-.15-.6-.25-.6-.33-.53-.4-.48-.5-.42-.3-.2v-2.15zm-25.6-4.7l.06.66.15.6.23.6.33.53.4.47.5.4.3.2v2.16l-.66-.27-.8-.5-.7-.6-.62-.7-.5-.82-.35-.86-.22-.9-.06-.9v-73.7h1.95z" stroke="#000" stroke-width=".05"/><path d="M758.8-1771.5h-1.96v-1.32l.97.3 1-.3z"/><path stroke="#000" stroke-width=".05"/><path d="M786.66-1615.2l-7.5-13h15z"/><path d="M786.66-1613.26l-9.18-15.9h18.37zm-5.8-13.96l5.8 10.06 5.82-10.06z" stroke="#000" stroke-width=".05"/><use xlink:href="#aj" transform="matrix(1,0,0,1,760.7647710403365,-1703.6688232279778) translate(0 14.4)"/><path d="M1481.46-1583.57l.9.2.88.37.8.5.7.6.62.72.5.8.35.86.23.9.07.9v452.8l-.07.9-.22.9-.35.88-.5.8-.6.7-.7.62-.8.5-.88.35-.9.22-.9.07h-105.9v-1.95h105.82l.65-.05.62-.15.58-.24.54-.33.47-.4.4-.5.34-.53.25-.58.15-.63.05-.67v-452.63l-.05-.67-.15-.6-.24-.6-.32-.53-.4-.48-.5-.42-.53-.33-.58-.24-.62-.14-.66-.05h-270.44v-1.94h270.5zm-584.5 1.88v-1.94h290.15v1.95z" stroke="#000" stroke-width=".05"/><path d="M897-1581.7h-1.03v-1.94H897z" stroke="#000" stroke-width=".05"/><path d="M1373.68-1112.46l-13-7.5 13-7.5z"/><path d="M1374.65-1110.77l-15.9-9.2 15.9-9.18zm-12-9.2l10.05 5.82v-11.62z" stroke="#000" stroke-width=".05"/><use xlink:href="#aj" transform="matrix(1,0,0,1,1187.1140989982998,-1593.469722846517) translate(0 14.4)"/><path d="M-496.4-1277.96h479.36v142.86H-496.4z" fill="#fff" fill-opacity="0"/><path d="M-256.72-1135.1l239.68-71.43-239.68-71.43-239.68 71.43z" stroke="#333" stroke-width="1.5" fill="khaki"/><g><use xlink:href="#as" transform="matrix(1,0,0,1,-496.4034145445443,-1277.9587474167088) translate(0 79.26041666666667)"/><use xlink:href="#at" transform="matrix(1,0,0,1,-496.4034145445443,-1277.9587474167088) translate(120.00000000000001 79.26041666666667)"/><use xlink:href="#au" transform="matrix(1,0,0,1,-496.4034145445443,-1277.9587474167088) translate(142.98958333333334 79.26041666666667)"/><use xlink:href="#av" transform="matrix(1,0,0,1,-496.4034145445443,-1277.9587474167088) translate(225.25000000000003 79.26041666666667)"/><use xlink:href="#aw" transform="matrix(1,0,0,1,-496.4034145445443,-1277.9587474167088) translate(284.5104166666667 79.26041666666667)"/></g><path d="M-496.4-1041.24h479.36v142.86H-496.4z" fill="#fff" fill-opacity="0"/><path d="M-256.72-898.38l239.68-71.43-239.68-71.44-239.68 71.43z" stroke="#333" stroke-width="1.5" fill="khaki"/><g><use xlink:href="#as" transform="matrix(1,0,0,1,-496.4034145445444,-1041.237788664278) translate(0 79.26041666666667)"/><use xlink:href="#at" transform="matrix(1,0,0,1,-496.4034145445444,-1041.237788664278) translate(120.00000000000001 79.26041666666667)"/><use xlink:href="#au" transform="matrix(1,0,0,1,-496.4034145445444,-1041.237788664278) translate(142.98958333333334 79.26041666666667)"/><use xlink:href="#av" transform="matrix(1,0,0,1,-496.4034145445444,-1041.237788664278) translate(225.25000000000003 79.26041666666667)"/><use xlink:href="#ax" transform="matrix(1,0,0,1,-496.4034145445444,-1041.237788664278) translate(284.5104166666667 79.26041666666667)"/></g><path d="M-500.03-970.78v1.95h-76.33v-1.95zm-193.22 1.2v-1.96h87.54v1.95z" stroke="#000" stroke-width=".05"/><path d="M-496.4-970.6l-2.63.8 2.63.77v.2h-3.66v-1.95h3.66z"/><path stroke="#000" stroke-width=".05"/><path d="M-694.25-963.07l-13-7.5 13-7.5z"/><path d="M-693.28-961.38l-15.9-9.2 15.9-9.18zm-12-9.2l10.05 5.82v-11.62z" stroke="#000" stroke-width=".05"/><g><use xlink:href="#ah" transform="matrix(1,0,0,1,-605.7143878920472,-980.609218087194) translate(0 14.4)"/></g><path d="M-1051.7-1004.73H-710v69.84h-341.7z" fill="#fff" fill-opacity="0"/><path d="M-1039.76-1004.73h317.82c6.62 0 11.95 3.54 11.95 7.94v53.97c0 4.4-5.32 7.94-11.94 7.94h-317.82c-6.62 0-11.95-3.53-11.95-7.93v-53.96c0-4.4 5.32-7.93 11.94-7.93z" stroke="#333" stroke-width="1.5" fill="plum"/><g><use xlink:href="#H" transform="matrix(1,0,0,1,-1051.706111999698,-1004.7298680871941) translate(0 42.76041666666667)"/><use xlink:href="#ay" transform="matrix(1,0,0,1,-1051.706111999698,-1004.7298680871941) translate(6.000000000000001 42.76041666666667)"/><use xlink:href="#az" transform="matrix(1,0,0,1,-1051.706111999698,-1004.7298680871941) translate(91.33333333333333 42.76041666666667)"/><use xlink:href="#aA" transform="matrix(1,0,0,1,-1051.706111999698,-1004.7298680871941) translate(130.4375 42.76041666666667)"/><use xlink:href="#aB" transform="matrix(1,0,0,1,-1051.706111999698,-1004.7298680871941) translate(199.16666666666669 42.76041666666667)"/><use xlink:href="#aC" transform="matrix(1,0,0,1,-1051.706111999698,-1004.7298680871941) translate(224.72916666666669 42.76041666666667)"/></g><path d="M-1026.95-1238.35h341.72v69.84h-341.72z" fill="#fff" fill-opacity="0"/><path d="M-1015-1238.35h317.82c6.62 0 11.95 3.54 11.95 7.94v53.96c0 4.4-5.33 7.93-11.95 7.93H-1015c-6.62 0-11.95-3.55-11.95-7.94v-53.97c0-4.4 5.33-7.95 11.95-7.95z" stroke="#333" stroke-width="1.5" fill="plum"/><g><use xlink:href="#H" transform="matrix(1,0,0,1,-1026.9457050847107,-1238.3497423401175) translate(0 42.76041666666667)"/><use xlink:href="#ay" transform="matrix(1,0,0,1,-1026.9457050847107,-1238.3497423401175) translate(6.000000000000001 42.76041666666667)"/><use xlink:href="#az" transform="matrix(1,0,0,1,-1026.9457050847107,-1238.3497423401175) translate(91.33333333333333 42.76041666666667)"/><use xlink:href="#aA" transform="matrix(1,0,0,1,-1026.9457050847107,-1238.3497423401175) translate(130.4375 42.76041666666667)"/><use xlink:href="#aB" transform="matrix(1,0,0,1,-1026.9457050847107,-1238.3497423401175) translate(199.16666666666669 42.76041666666667)"/><use xlink:href="#aD" transform="matrix(1,0,0,1,-1026.9457050847107,-1238.3497423401175) translate(224.72916666666669 42.76041666666667)"/></g><path d="M-255.75-1043.02h-1.95v-40.36h1.95zm0-61.96h-1.95v-13.35h1.95z" stroke="#000" stroke-width=".05"/><path d="M-255.75-1041.73l-.97-.3-.98.3v-1.32h1.95z"/><path stroke="#000" stroke-width=".05"/><path d="M-249.22-1119.33h-15l7.5-13z"/><path d="M-247.53-1118.35h-18.38l9.18-15.92zm-15-1.95h11.62l-5.82-10.07z" stroke="#000" stroke-width=".05"/><g><use xlink:href="#aj" transform="matrix(1,0,0,1,-268.19587771924387,-1104.9795980532285) translate(0 14.4)"/></g><path d="M-606.43-1205.56h-62.06v-1.95h62.07zm106.4 0h-77.05v-1.95h77.05z" stroke="#000" stroke-width=".05"/><path d="M-496.4-1207.3l-2.63.77 2.63.78v.2h-3.66v-1.96h3.66z"/><path stroke="#000" stroke-width=".05"/><path d="M-669.5-1199.03l-12.98-7.5 13-7.5z"/><path d="M-668.5-1197.34l-15.93-9.2 15.9-9.18zm-12.03-9.2l10.06 5.82v-11.62z" stroke="#000" stroke-width=".05"/><g><use xlink:href="#ah" transform="matrix(1,0,0,1,-606.429993481624,-1217.3301768396248) translate(0 14.4)"/></g><path d="M-433.7-1474.25h353.96v69.85H-433.7z" fill="#fff" fill-opacity="0"/><path d="M-425.77-1474.25h338.1c4.4 0 7.93 3.54 7.93 7.94v53.96c0 4.4-3.54 7.94-7.93 7.94h-338.1c-4.4 0-7.94-3.54-7.94-7.94v-53.97c0-4.4 3.53-7.95 7.93-7.95z" stroke="#333" stroke-width="1.5" fill="tomato"/><g><use xlink:href="#n" transform="matrix(1,0,0,1,-433.70497771924386,-1474.2456967663306) translate(0 29.640292968750003)"/><use xlink:href="#ab" transform="matrix(1,0,0,1,-433.70497771924386,-1474.2456967663306) translate(75.42648437499999 29.640292968750003)"/><use xlink:href="#ac" transform="matrix(1,0,0,1,-433.70497771924386,-1474.2456967663306) translate(133.42849609374997 29.640292968750003)"/><use xlink:href="#ad" transform="matrix(1,0,0,1,-433.70497771924386,-1474.2456967663306) translate(161.36624023437497 29.640292968750003)"/><use xlink:href="#ae" transform="matrix(1,0,0,1,-433.70497771924386,-1474.2456967663306) translate(214.10619140624996 29.640292968750003)"/><use xlink:href="#af" transform="matrix(1,0,0,1,-433.70497771924386,-1474.2456967663306) translate(0 56.525625)"/></g><path d="M-255.75-1279.74h-1.95v-35.73h1.95zm0-57.33h-1.95v-50.6h1.95z" stroke="#000" stroke-width=".05"/><path d="M-255.75-1278.45l-.97-.3-.98.3v-1.32h1.95z"/><path stroke="#000" stroke-width=".05"/><path d="M-249.22-1388.66h-15l7.5-13z"/><path d="M-247.53-1387.7h-18.38l9.18-15.9zm-15-1.94h11.62l-5.82-10.06z" stroke="#000" stroke-width=".05"/><g><use xlink:href="#aj" transform="matrix(1,0,0,1,-268.1958777192439,-1337.0736330229263) translate(0 14.4)"/></g><path d="M-256.72-627.5v-254.1" stroke="#000" stroke-width="2" fill="none"/><path d="M-255.75-626.5h-1.95v-1.03h1.95z" stroke="#000" stroke-width=".05"/><path d="M-256.72-895.6l7.5 13h-15z" stroke="#000" stroke-width="2"/><path d="M-7-1766.12l.9.22.87.36.8.5.7.6.62.7.48.8.36.88.22.9.07.9v840.95l.05.66.15.6.24.6.33.53.4.47.5.4.53.34.58.25.62.15.67.05h527.2v1.95H2l-.88-.07-.92-.22-.86-.35-.8-.5-.7-.6-.62-.7-.5-.8-.35-.88-.22-.9-.07-.9v-840.95l-.06-.66-.14-.62-.24-.58-.33-.54-.4-.48-.48-.4-.54-.34-.58-.24-.62-.15-.67-.04h-859.78l-.67.05-.6.16-.6.24-.53.33-.48.4-.4.5-.34.53-.24.58-.15.62-.04.66v520.08h-1.95v-520.15l.08-.9.22-.9.36-.88.5-.8.6-.7.7-.62.8-.5.88-.35.9-.22.9-.07H-7.9z" stroke="#000" stroke-width=".05"/><path d="M-871.84-1239.1h-1.95v-1.03h1.96z"/><path stroke="#000" stroke-width=".05"/><path d="M543.28-914.27l-13 7.5v-15z"/><path d="M545.23-914.27l-15.9 9.2v-18.4zm-13.96 5.8l10.06-5.8-10.06-5.8zM-7-1721.4l.9.2.87.37.8.5.7.6.62.7.48.8.36.88.22.9.07.9v96.96h-1.95v-96.86l-.06-.67-.14-.6-.24-.6-.33-.54-.4-.48-.48-.4-.54-.34-.58-.23-.62-.14-.67-.06H-1087.4l-.66.06-.62.14-.58.24-.54.34-.48.4-.4.5-.34.53-.24.6-.15.6-.05.67v740.6l.05.68.15.6.24.6.33.53.4.5.48.4.54.32.58.25.62.14.66.06h33.96v1.95h-34.03l-.9-.07-.9-.22-.87-.36-.8-.5-.7-.6-.62-.7-.48-.82-.36-.86-.22-.9-.07-.9v-740.78l.07-.9.22-.9.36-.88.5-.8.6-.7.7-.62.8-.5.88-.35.9-.2.9-.08H-7.9z" stroke="#000" stroke-width=".05"/><path d="M-1052.46-968.83h-1.02v-1.95h1.02z"/><path stroke="#000" stroke-width=".05"/><path d="M-1.97-1617.6h-1.95v-1h1.95z" stroke="#000" stroke-width=".05"/><path d="M-256.72-1476v-64.67" stroke="#000" stroke-width="2" fill="none"/><path d="M-255.75-1475h-1.95v-1.02h1.95z" stroke="#000" stroke-width=".05"/><path d="M-256.72-1554.66l7.5 13h-15z" stroke="#000" stroke-width="2"/><path d="M-297.2-1627.25h80.95v69.84h-80.95z" fill="#fff" fill-opacity="0"/><path d="M-289.26-1627.25h65.08c4.4 0 7.94 3.54 7.94 7.94v53.95c0 4.4-3.54 7.94-7.94 7.94h-65.08c-4.4 0-7.94-3.55-7.94-7.94v-53.97c0-4.4 3.54-7.95 7.94-7.95z" stroke="#333" stroke-width="1.5" fill="#c21807"/><g><use xlink:href="#aE" transform="matrix(1,0,0,1,-297.1970777192439,-1627.2497560782906) translate(20.4553466796875 43.082958984375)"/></g><defs><path fill="#c21807" d="M212-179c-10-28-35-45-73-45-59 0-87 40-87 99 0 60 29 101 89 101 43 0 62-24 78-52l27 14C228-24 195 4 139 4 59 4 22-46 18-125c-6-104 99-153 187-111 19 9 31 26 39 46" id="aF"/><path fill="#c21807" d="M24 0v-261h32V0H24" id="aG"/><path fill="#c21807" d="M141-36C126-15 110 5 73 4 37 3 15-17 15-53c-1-64 63-63 125-63 3-35-9-54-41-54-24 1-41 7-42 31l-33-3c5-37 33-52 76-52 45 0 72 20 72 64v82c-1 20 7 32 28 27v20c-31 9-61-2-59-35zM48-53c0 20 12 33 32 33 41-3 63-29 60-74-43 2-92-5-92 41" id="aH"/><path fill="#c21807" d="M135-143c-3-34-86-38-87 0 15 53 115 12 119 90S17 21 10-45l28-5c4 36 97 45 98 0-10-56-113-15-118-90-4-57 82-63 122-42 12 7 21 19 24 35" id="aI"/><path fill="#c21807" d="M24-231v-30h32v30H24zM24 0v-190h32V0H24" id="aJ"/><path fill="#c21807" d="M101-234c-31-9-42 10-38 44h38v23H63V0H32v-167H5v-23h27c-7-52 17-82 69-68v24" id="aK"/><path fill="#c21807" d="M100-194c63 0 86 42 84 106H49c0 40 14 67 53 68 26 1 43-12 49-29l28 8c-11 28-37 45-77 45C44 4 14-33 15-96c1-61 26-98 85-98zm52 81c6-60-76-77-97-28-3 7-6 17-6 28h103" id="aL"/><path fill="#c21807" d="M114-163C36-179 61-72 57 0H25l-1-190h30c1 12-1 29 2 39 6-27 23-49 58-41v29" id="aM"/><g id="b"><use transform="matrix(0.08641975308641975,0,0,0.08641975308641975,0,0)" xlink:href="#aF"/><use transform="matrix(0.08641975308641975,0,0,0.08641975308641975,22.382716049382715,0)" xlink:href="#aG"/><use transform="matrix(0.08641975308641975,0,0,0.08641975308641975,29.209876543209877,0)" xlink:href="#aH"/><use transform="matrix(0.08641975308641975,0,0,0.08641975308641975,46.49382716049382,0)" xlink:href="#aI"/><use transform="matrix(0.08641975308641975,0,0,0.08641975308641975,62.04938271604938,0)" xlink:href="#aI"/><use transform="matrix(0.08641975308641975,0,0,0.08641975308641975,77.60493827160494,0)" xlink:href="#aJ"/><use transform="matrix(0.08641975308641975,0,0,0.08641975308641975,84.4320987654321,0)" xlink:href="#aK"/><use transform="matrix(0.08641975308641975,0,0,0.08641975308641975,93.07407407407406,0)" xlink:href="#aJ"/><use transform="matrix(0.08641975308641975,0,0,0.08641975308641975,99.90123456790126,0)" xlink:href="#aL"/><use transform="matrix(0.08641975308641975,0,0,0.08641975308641975,117.1851851851852,0)" xlink:href="#aM"/></g><path fill="#c21807" d="M30 0v-248h33v221h125V0H30" id="aN"/><path fill="#c21807" d="M100-194c62-1 85 37 85 99 1 63-27 99-86 99S16-35 15-95c0-66 28-99 85-99zM99-20c44 1 53-31 53-75 0-43-8-75-51-75s-53 32-53 75 10 74 51 75" id="aO"/><path fill="#c21807" d="M177-190C167-65 218 103 67 71c-23-6-38-20-44-43l32-5c15 47 100 32 89-28v-30C133-14 115 1 83 1 29 1 15-40 15-95c0-56 16-97 71-98 29-1 48 16 59 35 1-10 0-23 2-32h30zM94-22c36 0 50-32 50-73 0-42-14-75-50-75-39 0-46 34-46 75s6 73 46 73" id="aP"/><path fill="#c21807" d="M96-169c-40 0-48 33-48 73s9 75 48 75c24 0 41-14 43-38l32 2c-6 37-31 61-74 61-59 0-76-41-82-99-10-93 101-131 147-64 4 7 5 14 7 22l-32 3c-4-21-16-35-41-35" id="aQ"/><g id="c"><use transform="matrix(0.08641975308641975,0,0,0.08641975308641975,0,0)" xlink:href="#aN"/><use transform="matrix(0.08641975308641975,0,0,0.08641975308641975,17.28395061728395,0)" xlink:href="#aO"/><use transform="matrix(0.08641975308641975,0,0,0.08641975308641975,34.5679012345679,0)" xlink:href="#aP"/><use transform="matrix(0.08641975308641975,0,0,0.08641975308641975,51.85185185185185,0)" xlink:href="#aJ"/><use transform="matrix(0.08641975308641975,0,0,0.08641975308641975,58.679012345679006,0)" xlink:href="#aQ"/></g><path fill="#c21807" d="M63-220v92h138v28H63V0H30v-248h175v28H63" id="aR"/><path fill="#c21807" d="M115-194c53 0 69 39 70 98 0 66-23 100-70 100C84 3 66-7 56-30L54 0H23l1-261h32v101c10-23 28-34 59-34zm-8 174c40 0 45-34 45-75 0-40-5-75-45-74-42 0-51 32-51 76 0 43 10 73 51 73" id="aS"/><path fill="#c21807" d="M143 0L79-87 56-68V0H24v-261h32v163l83-92h37l-77 82L181 0h-38" id="aT"/><g id="e"><use transform="matrix(0.08641975308641975,0,0,0.08641975308641975,0,0)" xlink:href="#aR"/><use transform="matrix(0.08641975308641975,0,0,0.08641975308641975,18.925925925925924,0)" xlink:href="#aH"/><use transform="matrix(0.08641975308641975,0,0,0.08641975308641975,36.20987654320987,0)" xlink:href="#aG"/><use transform="matrix(0.08641975308641975,0,0,0.08641975308641975,43.03703703703703,0)" xlink:href="#aG"/><use transform="matrix(0.08641975308641975,0,0,0.08641975308641975,49.86419753086418,0)" xlink:href="#aS"/><use transform="matrix(0.08641975308641975,0,0,0.08641975308641975,67.14814814814814,0)" xlink:href="#aH"/><use transform="matrix(0.08641975308641975,0,0,0.08641975308641975,84.43209876543209,0)" xlink:href="#aQ"/><use transform="matrix(0.08641975308641975,0,0,0.08641975308641975,99.98765432098764,0)" xlink:href="#aT"/></g><path fill="#333" d="M657 26c-323 0-524-166-541-416h195c15 169 171 246 346 246 202 0 356-106 356-265 5-203-294-238-475-293-239-73-380-191-380-389 0-252 224-419 512-419 294 0 499 171 508 396H992c-17-145-151-228-328-228-193 0-321 102-321 242 0 156 175 211 284 241l149 41c160 44 422 134 422 412 0 244-197 432-541 432" id="aU"/><path fill="#333" d="M598-1118v154H368v674c0 100 37 144 132 144 23 0 62-6 92-12L629-6c-37 13-88 20-134 20-193 0-307-107-307-290v-688H20v-154h168v-266h180v266h230" id="aV"/><path fill="#333" d="M471 26C259 26 90-98 90-318c0-256 228-303 435-329 202-27 287-16 287-108 0-139-79-219-234-219-161 0-248 86-283 164l-173-57c86-203 278-265 451-265 150 0 419 46 419 395V0H815v-152h-12C765-73 660 26 471 26zm31-159c199 0 310-134 310-271v-155c-30 35-226 55-295 64-131 17-246 59-246 186 0 116 97 176 231 176" id="aW"/><path fill="#333" d="M158 0v-1118h174v172h12c41-113 157-188 290-188 26 0 70 2 91 3v181c-11-2-60-10-108-10-161 0-279 109-279 260V0H158" id="aX"/><path fill="#333" d="M295 13c-75 0-135-60-135-135s60-135 135-135 135 60 135 135S370 13 295 13zm0-809c-75 0-135-60-135-135s60-135 135-135 135 60 135 135-60 135-135 135" id="aY"/><g id="f"><use transform="matrix(0.010849609375,0,0,0.010849609375,0,0)" xlink:href="#aU"/><use transform="matrix(0.010849609375,0,0,0.010849609375,14.256386718749999,0)" xlink:href="#aV"/><use transform="matrix(0.010849609375,0,0,0.010849609375,21.63412109375,0)" xlink:href="#aW"/><use transform="matrix(0.010849609375,0,0,0.010849609375,34.111171875,0)" xlink:href="#aX"/><use transform="matrix(0.010849609375,0,0,0.010849609375,42.82340820312499,0)" xlink:href="#aV"/><use transform="matrix(0.010849609375,0,0,0.010849609375,50.09264648437499,0)" xlink:href="#aY"/></g><path fill="#333" d="M180 0v-1490h510c348 0 508 194 508 460 0 198-88 351-276 417L1256 0h-220L726-579c-117 2-238 0-356 1V0H180zm190-747h312c235 0 327-108 327-283 0-177-92-293-329-293H370v576" id="aZ"/><path fill="#333" d="M628 24c-324 0-524-230-524-574 0-343 198-582 503-582 237 0 487 146 487 559v75H286c9 234 145 362 343 362 132 0 231-58 273-172l174 48C1024-91 857 24 628 24zM287-650h624c-17-190-120-322-304-322-192 0-309 151-320 322" id="ba"/><path fill="#333" d="M613 24c-304 0-509-231-509-576 0-350 205-580 509-580 216 0 392 114 453 309l-173 49c-33-115-133-197-280-197-223 0-326 196-326 419 0 220 103 415 326 415 150 0 252-85 285-206l172 49C1010-95 832 24 613 24" id="bb"/><path fill="#333" d="M158 0v-1118h180V0H158zm91-1301c-68 0-125-53-125-119s57-119 125-119c69 0 126 53 126 119s-57 119-126 119" id="bc"/><path fill="#333" d="M481 0L54-1118h197c107 314 236 620 325 951 87-331 217-637 324-951h197L670 0H481" id="bd"/><g id="g"><use transform="matrix(0.010849609375,0,0,0.010849609375,0,0)" xlink:href="#aZ"/><use transform="matrix(0.010849609375,0,0,0.010849609375,13.974296874999999,0)" xlink:href="#ba"/><use transform="matrix(0.010849609375,0,0,0.010849609375,26.928730468749997,0)" xlink:href="#bb"/><use transform="matrix(0.010849609375,0,0,0.010849609375,39.6227734375,0)" xlink:href="#ba"/><use transform="matrix(0.010849609375,0,0,0.010849609375,52.57720703125,0)" xlink:href="#bc"/><use transform="matrix(0.010849609375,0,0,0.010849609375,57.958613281249995,0)" xlink:href="#bd"/><use transform="matrix(0.010849609375,0,0,0.010849609375,70.01252929687499,0)" xlink:href="#ba"/></g><path fill="#333" d="M180 0v-1490h224l606 953c40 63 108 177 176 312-27-437-7-821-13-1265h190V0h-226C860-448 622-778 356-1262c27 476 11 792 15 1262H180" id="be"/><path fill="#333" d="M409 0L70-1118h191c89 329 165 560 243 925 75-353 154-601 240-925h192c85 325 161 564 235 922 77-354 157-598 244-922h191L1267 0h-179c-86-307-176-590-250-913C763-588 675-308 588 0H409" id="bf"/><g id="h"><use transform="matrix(0.010849609375,0,0,0.010849609375,0,0)" xlink:href="#be"/><use transform="matrix(0.010849609375,0,0,0.010849609375,16.740947265625,0)" xlink:href="#ba"/><use transform="matrix(0.010849609375,0,0,0.010849609375,29.2939453125,0)" xlink:href="#bf"/></g><path fill="#333" d="M784 20c-382 0-662-292-662-764 0-473 280-766 662-766s660 293 660 766c0 282-99 499-260 629l192 255h-198L1049-33C969 2 880 20 784 20zm-62-486h198l156 205c112-98 183-261 183-483 0-383-209-590-475-590-268 0-477 208-477 590 0 380 209 588 477 588 54 0 106-9 154-25" id="bg"/><path fill="#333" d="M537 14c-226 0-379-139-379-422v-710h180v695c0 172 97 275 253 275 160 0 281-109 281-300v-670h181V0H879v-209C806-46 684 14 537 14" id="bh"/><path fill="#333" d="M140 405l46-156c120 36 205 19 263-150l32-93L54-1118h197c107 313 237 620 324 950 87-331 219-637 326-950h196L606 167c-68 178-176 259-334 259-64 0-113-12-132-21" id="bi"/><g id="i"><use transform="matrix(0.010849609375,0,0,0.010849609375,0,0)" xlink:href="#bg"/><use transform="matrix(0.010849609375,0,0,0.010849609375,16.99048828125,0)" xlink:href="#bh"/><use transform="matrix(0.010849609375,0,0,0.010849609375,30.129365234374998,0)" xlink:href="#ba"/><use transform="matrix(0.010849609375,0,0,0.010849609375,43.083798828125,0)" xlink:href="#aX"/><use transform="matrix(0.010849609375,0,0,0.010849609375,51.796035156249985,0)" xlink:href="#bi"/></g><path fill="#333" d="M370-1490V0H180v-1490h190" id="bj"/><path fill="#333" d="M538 24C308 24 148-78 108-271l171-41c32 123 123 178 257 178 156 0 256-77 256-169 0-77-54-128-164-154l-186-44c-203-48-300-148-300-305 0-192 176-326 414-326 230 0 351 112 402 269l-163 42c-31-80-94-158-238-158-133 0-233 69-233 162 0 83 57 129 188 160l169 40c203 48 298 149 298 302 0 196-179 339-441 339" id="bk"/><g id="j"><use transform="matrix(0.010849609375,0,0,0.010849609375,0,0)" xlink:href="#bj"/><use transform="matrix(0.010849609375,0,0,0.010849609375,5.96728515625,0)" xlink:href="#bk"/></g><g id="k"><use transform="matrix(0.010849609375,0,0,0.010849609375,0,0)" xlink:href="#bg"/><use transform="matrix(0.010849609375,0,0,0.010849609375,16.99048828125,0)" xlink:href="#bh"/><use transform="matrix(0.010849609375,0,0,0.010849609375,30.129365234374998,0)" xlink:href="#ba"/><use transform="matrix(0.010849609375,0,0,0.010849609375,43.083798828125,0)" xlink:href="#aX"/><use transform="matrix(0.010849609375,0,0,0.010849609375,51.796035156249985,0)" xlink:href="#bi"/></g><path fill="#333" d="M338-670V0H158v-1118h173l1 207c72-158 192-221 342-221 226 0 378 139 378 422V0H872v-695c0-172-96-275-252-275-161 0-282 109-282 300" id="bl"/><g id="l"><use transform="matrix(0.010849609375,0,0,0.010849609375,0,0)" xlink:href="#bc"/><use transform="matrix(0.010849609375,0,0,0.010849609375,5.3814062499999995,0)" xlink:href="#bl"/></g><path fill="#333" d="M783 20c-382 0-661-292-661-764 0-473 279-766 661-766 302 0 548 182 601 489h-190c-42-204-217-313-411-313-268 0-476 208-476 590 0 381 209 588 476 588 195 0 369-110 411-313h190c-52 303-296 489-601 489" id="bm"/><path fill="#333" d="M338-670V0H158v-1490h180v566c73-149 190-208 336-208 226 0 379 139 379 422V0H872v-695c0-172-96-275-252-275-161 0-282 109-282 300" id="bn"/><path fill="#333" d="M383-449c-3-277 82-343 222-425 88-53 156-134 156-250 0-139-108-227-243-227-118 0-235 70-246 236H82c10-251 200-395 436-395 259 0 427 165 427 393 0 161-74 273-203 352-132 80-180 132-178 316H383zm93 462c-75 0-135-60-135-134 0-75 60-135 135-135 74 0 134 60 134 135 0 74-60 134-134 134" id="bo"/><g id="m"><use transform="matrix(0.010849609375,0,0,0.010849609375,0,0)" xlink:href="#bm"/><use transform="matrix(0.010849609375,0,0,0.010849609375,16.231015624999998,0)" xlink:href="#aW"/><use transform="matrix(0.010849609375,0,0,0.010849609375,28.708066406249998,0)" xlink:href="#bb"/><use transform="matrix(0.010849609375,0,0,0.010849609375,41.402109374999995,0)" xlink:href="#bn"/><use transform="matrix(0.010849609375,0,0,0.010849609375,54.540986328124994,0)" xlink:href="#ba"/><use transform="matrix(0.010849609375,0,0,0.010849609375,67.495419921875,0)" xlink:href="#bo"/></g><g id="n"><use transform="matrix(0.010849609375,0,0,0.010849609375,0,0)" xlink:href="#aZ"/><use transform="matrix(0.010849609375,0,0,0.010849609375,13.974296874999999,0)" xlink:href="#ba"/><use transform="matrix(0.010849609375,0,0,0.010849609375,26.928730468749997,0)" xlink:href="#aV"/><use transform="matrix(0.010849609375,0,0,0.010849609375,34.19796875,0)" xlink:href="#bh"/><use transform="matrix(0.010849609375,0,0,0.010849609375,47.336845703125,0)" xlink:href="#aX"/><use transform="matrix(0.010849609375,0,0,0.010849609375,56.049082031249995,0)" xlink:href="#bl"/></g><path fill="#333" d="M577 24c-279 0-473-224-473-580 0-354 195-576 474-576 218 0 287 134 324 193h14v-551h180V0H922v-173h-20C865-111 790 24 577 24zm27-161c203 0 314-172 314-421 0-247-108-413-314-413-212 0-317 181-317 413 0 235 108 421 317 421" id="bp"/><g id="o"><use transform="matrix(0.010849609375,0,0,0.010849609375,0,0)" xlink:href="#bm"/><use transform="matrix(0.010849609375,0,0,0.010849609375,16.231015624999998,0)" xlink:href="#aW"/><use transform="matrix(0.010849609375,0,0,0.010849609375,28.708066406249998,0)" xlink:href="#bb"/><use transform="matrix(0.010849609375,0,0,0.010849609375,41.402109374999995,0)" xlink:href="#bn"/><use transform="matrix(0.010849609375,0,0,0.010849609375,54.540986328124994,0)" xlink:href="#ba"/><use transform="matrix(0.010849609375,0,0,0.010849609375,67.495419921875,0)" xlink:href="#bp"/></g><path fill="#333" d="M338-1490V0H158v-1490h180" id="bq"/><g id="p"><use transform="matrix(0.010849609375,0,0,0.010849609375,0,0)" xlink:href="#aZ"/><use transform="matrix(0.010849609375,0,0,0.010849609375,13.974296874999999,0)" xlink:href="#ba"/><use transform="matrix(0.010849609375,0,0,0.010849609375,26.928730468749997,0)" xlink:href="#bk"/><use transform="matrix(0.010849609375,0,0,0.010849609375,38.657158203125,0)" xlink:href="#bh"/><use transform="matrix(0.010849609375,0,0,0.010849609375,51.79603515625,0)" xlink:href="#bq"/><use transform="matrix(0.010849609375,0,0,0.010849609375,57.5029296875,0)" xlink:href="#aV"/></g><path fill="#333" d="M180 0v-1490h908v168H370v486h669v168H370v500h727V0H180" id="br"/><g id="q"><use transform="matrix(0.010849609375,0,0,0.010849609375,0,0)" xlink:href="#br"/><use transform="matrix(0.010849609375,0,0,0.010849609375,13.355869140625,0)" xlink:href="#bl"/><use transform="matrix(0.010849609375,0,0,0.010849609375,26.483896484375,0)" xlink:href="#bp"/></g><g id="r"><use transform="matrix(0.010849609375,0,0,0.010849609375,0,0)" xlink:href="#bg"/><use transform="matrix(0.010849609375,0,0,0.010849609375,16.99048828125,0)" xlink:href="#bh"/><use transform="matrix(0.010849609375,0,0,0.010849609375,30.129365234374998,0)" xlink:href="#ba"/><use transform="matrix(0.010849609375,0,0,0.010849609375,43.083798828125,0)" xlink:href="#aX"/><use transform="matrix(0.010849609375,0,0,0.010849609375,51.796035156249985,0)" xlink:href="#bi"/></g><path fill="#333" d="M180 0v-1490h190v1322h690V0H180" id="bs"/><path fill="#333" d="M611 442c-248 0-391-105-460-228l146-94c47 65 117 165 314 165 178 0 307-82 307-266v-224h-17C863-141 792-18 576-18c-268 0-472-195-472-546 0-346 197-568 476-568 216 0 288 133 326 193h17v-179h175V29c0 289-215 413-487 413zm-5-620c203 0 314-146 314-390 0-237-108-403-314-403-213 0-319 180-319 403 0 230 109 390 319 390" id="bt"/><g id="s"><use transform="matrix(0.010849609375,0,0,0.010849609375,0,0)" xlink:href="#bs"/><use transform="matrix(0.010849609375,0,0,0.010849609375,12.56384765625,0)" xlink:href="#ba"/><use transform="matrix(0.010849609375,0,0,0.010849609375,25.518281249999998,0)" xlink:href="#bl"/><use transform="matrix(0.010849609375,0,0,0.010849609375,38.64630859375,0)" xlink:href="#bt"/><use transform="matrix(0.010849609375,0,0,0.010849609375,52.273417968749996,0)" xlink:href="#aV"/><use transform="matrix(0.010849609375,0,0,0.010849609375,59.54265625,0)" xlink:href="#bn"/></g><path fill="#333" d="M174-520v-126l944-476v196L406-588v12l712 338v194" id="bu"/><path fill="#333" d="M226-283v-166h904v166H226zm0-434v-166h904v166H226" id="bv"/><g id="t"><use transform="matrix(0.010849609375,0,0,0.010849609375,0,0)" xlink:href="#bu"/><use transform="matrix(0.010849609375,0,0,0.010849609375,14.701220703125,0)" xlink:href="#bv"/></g><path fill="#333" d="M180 0v-1490h270l367 940c28 72 75 218 110 339 35-117 81-264 110-339l362-940h271V0h-187c2-448-5-837 7-1287-157 497-311 829-483 1287H842C666-458 514-784 354-1284c12 438 5 843 7 1284H180" id="bw"/><path fill="#333" d="M52 0l541-1490h220L1361 0h-200l-149-416H398L254 0H52zm404-582h497c-103-290-145-390-251-756-108 377-145 460-246 756" id="bx"/><path fill="#333" d="M57 0l534-763-501-727h220c122 187 296 416 391 605 94-191 272-419 396-605h215L811-770 1340 0h-219C986-204 811-426 699-640 588-430 407-202 273 0H57" id="by"/><path fill="#333" d="M934 0v166H0V0h934" id="bz"/><path fill="#333" d="M180 0v-1490h510c348 0 508 209 508 474 0 266-160 477-507 477H370V0H180zm190-706h312c236 0 327-133 327-310 0-176-91-307-329-307H370v617" id="bA"/><path fill="#333" d="M789 20c-398 0-667-293-667-764 0-473 273-766 655-766 315 0 558 198 612 487h-196c-61-191-204-311-415-311-262 0-471 207-471 590 0 380 208 588 482 588 249 0 420-165 425-427H828v-166h572v163c0 370-256 606-611 606" id="bB"/><path fill="#333" d="M98-1322v-168h1126v168H757V0H567v-1322H98" id="bC"/><path fill="#333" d="M180 0v-1490h190v644h782v-644h190V0h-190v-678H370V0H180" id="bD"/><g id="u"><use transform="matrix(0.010849609375,0,0,0.010849609375,0,0)" xlink:href="#bw"/><use transform="matrix(0.010849609375,0,0,0.010849609375,20.07177734375,0)" xlink:href="#bx"/><use transform="matrix(0.010849609375,0,0,0.010849609375,35.402275390625,0)" xlink:href="#by"/><use transform="matrix(0.010849609375,0,0,0.010849609375,50.5591796875,0)" xlink:href="#bz"/><use transform="matrix(0.010849609375,0,0,0.010849609375,60.69271484375,0)" xlink:href="#aU"/><use transform="matrix(0.010849609375,0,0,0.010849609375,74.94910156249999,0)" xlink:href="#bj"/><use transform="matrix(0.010849609375,0,0,0.010849609375,80.91638671874999,0)" xlink:href="#bw"/><use transform="matrix(0.010849609375,0,0,0.010849609375,100.98816406249999,0)" xlink:href="#bA"/><use transform="matrix(0.010849609375,0,0,0.010849609375,115.179453125,0)" xlink:href="#bs"/><use transform="matrix(0.010849609375,0,0,0.010849609375,127.74330078125,0)" xlink:href="#br"/><use transform="matrix(0.010849609375,0,0,0.010849609375,141.099169921875,0)" xlink:href="#bz"/><use transform="matrix(0.010849609375,0,0,0.010849609375,151.98132812499998,0)" xlink:href="#bs"/><use transform="matrix(0.010849609375,0,0,0.010849609375,164.54517578124998,0)" xlink:href="#br"/><use transform="matrix(0.010849609375,0,0,0.010849609375,177.90104492187498,0)" xlink:href="#be"/><use transform="matrix(0.010849609375,0,0,0.010849609375,194.6419921875,0)" xlink:href="#bB"/><use transform="matrix(0.010849609375,0,0,0.010849609375,210.558369140625,0)" xlink:href="#bC"/><use transform="matrix(0.010849609375,0,0,0.010849609375,224.901552734375,0)" xlink:href="#bD"/><use transform="matrix(0.010849609375,0,0,0.010849609375,241.414658203125,0)" xlink:href="#bo"/></g><path fill="#333" d="M158 0v-1118h175l1 205c55-151 181-225 313-225 147 0 245 90 285 228 53-141 190-228 352-228 194 0 352 125 352 384V0h-181v-749c0-161-105-225-225-225-151 0-243 103-243 244V0H807v-767c0-124-93-207-219-207-131 0-250 92-250 270V0H158" id="bE"/><path fill="#333" d="M158 418v-1536h174v179h20c37-59 106-193 324-193 279 0 474 222 474 576 0 356-194 580-473 580-213 0-288-135-325-197h-14v591H158zm492-555c209 0 317-186 317-421 0-232-105-413-317-413-206 0-314 166-314 413 0 249 111 421 314 421" id="bF"/><path fill="#333" d="M678-1118v154H420V0H240v-964H20v-154h220v-149c0-194 155-293 318-293 85 0 141 18 168 30l-50 154c-19-6-47-17-97-17-111 0-159 58-159 166v109h258" id="bG"/><g id="v"><use transform="matrix(0.010849609375,0,0,0.010849609375,0,0)" xlink:href="#bk"/><use transform="matrix(0.010849609375,0,0,0.010849609375,11.728427734375,0)" xlink:href="#bc"/><use transform="matrix(0.010849609375,0,0,0.010849609375,17.109833984375,0)" xlink:href="#bE"/><use transform="matrix(0.010849609375,0,0,0.010849609375,36.574033203125,0)" xlink:href="#bF"/><use transform="matrix(0.010849609375,0,0,0.010849609375,50.179443359375,0)" xlink:href="#bq"/><use transform="matrix(0.010849609375,0,0,0.010849609375,55.560849609375,0)" xlink:href="#ba"/><use transform="matrix(0.010849609375,0,0,0.010849609375,68.515283203125,0)" xlink:href="#bz"/><use transform="matrix(0.010849609375,0,0,0.010849609375,78.648818359375,0)" xlink:href="#bG"/><use transform="matrix(0.010849609375,0,0,0.010849609375,86.525634765625,0)" xlink:href="#aW"/><use transform="matrix(0.010849609375,0,0,0.010849609375,99.002685546875,0)" xlink:href="#bb"/><use transform="matrix(0.010849609375,0,0,0.010849609375,111.696728515625,0)" xlink:href="#aV"/><use transform="matrix(0.010849609375,0,0,0.010849609375,118.965966796875,0)" xlink:href="#bh"/><use transform="matrix(0.010849609375,0,0,0.010849609375,132.10484375,0)" xlink:href="#aW"/><use transform="matrix(0.010849609375,0,0,0.010849609375,144.58189453125,0)" xlink:href="#bq"/></g><path fill="#333" d="M1096 418H916v-591h-14C865-111 790 24 577 24c-279 0-473-224-473-580 0-354 195-576 474-576 218 0 287 134 324 193h20v-179h174V418zM604-137c203 0 314-172 314-421 0-247-108-413-314-413-212 0-317 181-317 413 0 235 108 421 317 421" id="bH"/><g id="w"><use transform="matrix(0.010849609375,0,0,0.010849609375,0,0)" xlink:href="#bH"/><use transform="matrix(0.010849609375,0,0,0.010849609375,13.605410156249999,0)" xlink:href="#bh"/><use transform="matrix(0.010849609375,0,0,0.010849609375,26.744287109374998,0)" xlink:href="#ba"/><use transform="matrix(0.010849609375,0,0,0.010849609375,39.698720703125,0)" xlink:href="#aX"/><use transform="matrix(0.010849609375,0,0,0.010849609375,48.41095703125,0)" xlink:href="#bi"/><use transform="matrix(0.010849609375,0,0,0.010849609375,60.898857421875,0)" xlink:href="#bo"/></g><g id="x"><use transform="matrix(0.010849609375,0,0,0.010849609375,0,0)" xlink:href="#bD"/><use transform="matrix(0.010849609375,0,0,0.010849609375,16.51310546875,0)" xlink:href="#aW"/><use transform="matrix(0.010849609375,0,0,0.010849609375,28.99015625,0)" xlink:href="#bk"/></g><path fill="#333" d="M613 24c-304 0-509-231-509-576 0-350 205-580 509-580 305 0 511 230 511 580 0 345-206 576-511 576zm0-161c226 0 329-195 329-415 0-222-103-419-329-419-223 0-326 196-326 419 0 220 103 415 326 415" id="bI"/><path fill="#333" d="M65 0l393-574-370-544h210c88 136 192 297 267 435 67-142 176-302 264-435h206L661-564 1053 0H844c-94-144-206-310-287-458C484-308 366-142 273 0H65" id="bJ"/><path fill="#333" d="M158 0v-1490h180v865h22l478-493h223L593-638 1096 0H865L456-523 338-412V0H158" id="bK"/><g id="y"><use transform="matrix(0.010849609375,0,0,0.010849609375,0,0)" xlink:href="#bb"/><use transform="matrix(0.010849609375,0,0,0.010849609375,12.694042968749999,0)" xlink:href="#bI"/><use transform="matrix(0.010849609375,0,0,0.010849609375,26.01736328125,0)" xlink:href="#bE"/><use transform="matrix(0.010849609375,0,0,0.010849609375,45.481562499999995,0)" xlink:href="#bF"/><use transform="matrix(0.010849609375,0,0,0.010849609375,59.08697265625,0)" xlink:href="#bq"/><use transform="matrix(0.010849609375,0,0,0.010849609375,64.46837890625,0)" xlink:href="#ba"/><use transform="matrix(0.010849609375,0,0,0.010849609375,76.92373046875,0)" xlink:href="#bJ"/><use transform="matrix(0.010849609375,0,0,0.010849609375,89.05359374999999,0)" xlink:href="#bz"/><use transform="matrix(0.010849609375,0,0,0.010849609375,99.93575195312499,0)" xlink:href="#bK"/><use transform="matrix(0.010849609375,0,0,0.010849609375,111.631630859375,0)" xlink:href="#ba"/><use transform="matrix(0.010849609375,0,0,0.010849609375,124.152080078125,0)" xlink:href="#bi"/><use transform="matrix(0.010849609375,0,0,0.010849609375,136.63998046875,0)" xlink:href="#bf"/><use transform="matrix(0.010849609375,0,0,0.010849609375,154.422490234375,0)" xlink:href="#bI"/><use transform="matrix(0.010849609375,0,0,0.010849609375,167.745810546875,0)" xlink:href="#aX"/><use transform="matrix(0.010849609375,0,0,0.010849609375,175.74197265625,0)" xlink:href="#bp"/><use transform="matrix(0.010849609375,0,0,0.010849609375,189.3473828125,0)" xlink:href="#bk"/><use transform="matrix(0.010849609375,0,0,0.010849609375,201.07581054687498,0)" xlink:href="#bo"/></g><g id="z"><use transform="matrix(0.010849609375,0,0,0.010849609375,0,0)" xlink:href="#bD"/><use transform="matrix(0.010849609375,0,0,0.010849609375,16.51310546875,0)" xlink:href="#aW"/><use transform="matrix(0.010849609375,0,0,0.010849609375,28.99015625,0)" xlink:href="#bk"/></g><g id="A"><use transform="matrix(0.010849609375,0,0,0.010849609375,0,0)" xlink:href="#bk"/><use transform="matrix(0.010849609375,0,0,0.010849609375,11.728427734375,0)" xlink:href="#bc"/><use transform="matrix(0.010849609375,0,0,0.010849609375,17.109833984375,0)" xlink:href="#bE"/><use transform="matrix(0.010849609375,0,0,0.010849609375,36.574033203125,0)" xlink:href="#bF"/><use transform="matrix(0.010849609375,0,0,0.010849609375,50.179443359375,0)" xlink:href="#bq"/><use transform="matrix(0.010849609375,0,0,0.010849609375,55.560849609375,0)" xlink:href="#ba"/><use transform="matrix(0.010849609375,0,0,0.010849609375,68.515283203125,0)" xlink:href="#bz"/><use transform="matrix(0.010849609375,0,0,0.010849609375,79.39744140625,0)" xlink:href="#bK"/><use transform="matrix(0.010849609375,0,0,0.010849609375,91.0933203125,0)" xlink:href="#ba"/><use transform="matrix(0.010849609375,0,0,0.010849609375,103.61376953125,0)" xlink:href="#bi"/><use transform="matrix(0.010849609375,0,0,0.010849609375,116.101669921875,0)" xlink:href="#bf"/><use transform="matrix(0.010849609375,0,0,0.010849609375,133.8841796875,0)" xlink:href="#bI"/><use transform="matrix(0.010849609375,0,0,0.010849609375,147.20749999999998,0)" xlink:href="#aX"/><use transform="matrix(0.010849609375,0,0,0.010849609375,155.203662109375,0)" xlink:href="#bp"/><use transform="matrix(0.010849609375,0,0,0.010849609375,168.809072265625,0)" xlink:href="#bk"/><use transform="matrix(0.010849609375,0,0,0.010849609375,180.5375,0)" xlink:href="#bo"/></g><g id="B"><use transform="matrix(0.010849609375,0,0,0.010849609375,0,0)" xlink:href="#aZ"/><use transform="matrix(0.010849609375,0,0,0.010849609375,13.974296874999999,0)" xlink:href="#bI"/><use transform="matrix(0.010849609375,0,0,0.010849609375,27.297617187500002,0)" xlink:href="#bh"/><use transform="matrix(0.010849609375,0,0,0.010849609375,40.436494140625,0)" xlink:href="#aV"/><use transform="matrix(0.010849609375,0,0,0.010849609375,47.488740234374994,0)" xlink:href="#ba"/></g><g id="C"><use transform="matrix(0.010849609375,0,0,0.010849609375,0,0)" xlink:href="#aV"/><use transform="matrix(0.010849609375,0,0,0.010849609375,7.05224609375,0)" xlink:href="#bI"/></g><g id="D"><use transform="matrix(0.010849609375,0,0,0.010849609375,0,0)" xlink:href="#aU"/><use transform="matrix(0.010849609375,0,0,0.010849609375,14.256386718749999,0)" xlink:href="#bc"/><use transform="matrix(0.010849609375,0,0,0.010849609375,19.63779296875,0)" xlink:href="#bE"/><use transform="matrix(0.010849609375,0,0,0.010849609375,39.1019921875,0)" xlink:href="#bF"/><use transform="matrix(0.010849609375,0,0,0.010849609375,52.707402343750005,0)" xlink:href="#bq"/><use transform="matrix(0.010849609375,0,0,0.010849609375,58.08880859375001,0)" xlink:href="#ba"/></g><g id="E"><use transform="matrix(0.010849609375,0,0,0.010849609375,0,0)" xlink:href="#bw"/><use transform="matrix(0.010849609375,0,0,0.010849609375,20.07177734375,0)" xlink:href="#bI"/><use transform="matrix(0.010849609375,0,0,0.010849609375,33.39509765625,0)" xlink:href="#bp"/><use transform="matrix(0.010849609375,0,0,0.010849609375,47.000507812500004,0)" xlink:href="#ba"/><use transform="matrix(0.010849609375,0,0,0.010849609375,59.95494140624999,0)" xlink:href="#bq"/></g><g id="F"><use transform="matrix(0.010849609375,0,0,0.010849609375,0,0)" xlink:href="#bw"/><use transform="matrix(0.010849609375,0,0,0.010849609375,20.07177734375,0)" xlink:href="#ba"/><use transform="matrix(0.010849609375,0,0,0.010849609375,33.0262109375,0)" xlink:href="#bp"/><use transform="matrix(0.010849609375,0,0,0.010849609375,46.63162109375,0)" xlink:href="#bc"/><use transform="matrix(0.010849609375,0,0,0.010849609375,52.01302734375,0)" xlink:href="#bh"/><use transform="matrix(0.010849609375,0,0,0.010849609375,65.15190429687499,0)" xlink:href="#bE"/></g><g id="G"><use transform="matrix(0.010849609375,0,0,0.010849609375,0,0)" xlink:href="#bx"/><use transform="matrix(0.010849609375,0,0,0.010849609375,15.330498046874999,0)" xlink:href="#bp"/><use transform="matrix(0.010849609375,0,0,0.010849609375,29.044404296874998,0)" xlink:href="#bd"/><use transform="matrix(0.010849609375,0,0,0.010849609375,41.423808593749996,0)" xlink:href="#aW"/><use transform="matrix(0.010849609375,0,0,0.010849609375,53.900859374999996,0)" xlink:href="#bl"/><use transform="matrix(0.010849609375,0,0,0.010849609375,67.02888671874999,0)" xlink:href="#bb"/><use transform="matrix(0.010849609375,0,0,0.010849609375,79.72292968749998,0)" xlink:href="#ba"/><use transform="matrix(0.010849609375,0,0,0.010849609375,92.67736328124998,0)" xlink:href="#bp"/></g><g id="I"><use transform="matrix(0.010416666666666668,0,0,0.010416666666666668,0,0)" xlink:href="#br"/><use transform="matrix(0.010416666666666668,0,0,0.010416666666666668,12.822916666666668,0)" xlink:href="#bJ"/><use transform="matrix(0.010416666666666668,0,0,0.010416666666666668,23.989583333333336,0)" xlink:href="#ba"/><use transform="matrix(0.010416666666666668,0,0,0.010416666666666668,36.427083333333336,0)" xlink:href="#bb"/><use transform="matrix(0.010416666666666668,0,0,0.010416666666666668,48.614583333333336,0)" xlink:href="#bh"/><use transform="matrix(0.010416666666666668,0,0,0.010416666666666668,61.22916666666667,0)" xlink:href="#aV"/><use transform="matrix(0.010416666666666668,0,0,0.010416666666666668,68,0)" xlink:href="#ba"/></g><g id="J"><use transform="matrix(0.010416666666666668,0,0,0.010416666666666668,0,0)" xlink:href="#bg"/><use transform="matrix(0.010416666666666668,0,0,0.010416666666666668,16.312500000000004,0)" xlink:href="#bh"/><use transform="matrix(0.010416666666666668,0,0,0.010416666666666668,28.927083333333336,0)" xlink:href="#ba"/><use transform="matrix(0.010416666666666668,0,0,0.010416666666666668,41.364583333333336,0)" xlink:href="#aX"/><use transform="matrix(0.010416666666666668,0,0,0.010416666666666668,49.72916666666667,0)" xlink:href="#bi"/></g><g id="K"><use transform="matrix(0.010416666666666668,0,0,0.010416666666666668,0,0)" xlink:href="#bf"/><use transform="matrix(0.010416666666666668,0,0,0.010416666666666668,17.458333333333336,0)" xlink:href="#bc"/><use transform="matrix(0.010416666666666668,0,0,0.010416666666666668,22.625000000000004,0)" xlink:href="#aV"/><use transform="matrix(0.010416666666666668,0,0,0.010416666666666668,29.60416666666667,0)" xlink:href="#bn"/></g><g id="L"><use transform="matrix(0.010416666666666668,0,0,0.010416666666666668,0,0)" xlink:href="#aU"/><use transform="matrix(0.010416666666666668,0,0,0.010416666666666668,13.687500000000002,0)" xlink:href="#ba"/><use transform="matrix(0.010416666666666668,0,0,0.010416666666666668,26.125000000000004,0)" xlink:href="#bq"/><use transform="matrix(0.010416666666666668,0,0,0.010416666666666668,31.29166666666667,0)" xlink:href="#ba"/><use transform="matrix(0.010416666666666668,0,0,0.010416666666666668,43.72916666666667,0)" xlink:href="#bb"/><use transform="matrix(0.010416666666666668,0,0,0.010416666666666668,55.91666666666667,0)" xlink:href="#aV"/><use transform="matrix(0.010416666666666668,0,0,0.010416666666666668,62.6875,0)" xlink:href="#ba"/><use transform="matrix(0.010416666666666668,0,0,0.010416666666666668,75.125,0)" xlink:href="#bp"/></g><g id="M"><use transform="matrix(0.010416666666666668,0,0,0.010416666666666668,0,0)" xlink:href="#bw"/><use transform="matrix(0.010416666666666668,0,0,0.010416666666666668,19.270833333333336,0)" xlink:href="#bI"/><use transform="matrix(0.010416666666666668,0,0,0.010416666666666668,32.0625,0)" xlink:href="#bp"/><use transform="matrix(0.010416666666666668,0,0,0.010416666666666668,45.12499999999999,0)" xlink:href="#ba"/><use transform="matrix(0.010416666666666668,0,0,0.010416666666666668,57.5625,0)" xlink:href="#bq"/></g><g id="N"><use transform="matrix(0.010849609375,0,0,0.010849609375,0,0)" xlink:href="#aZ"/><use transform="matrix(0.010849609375,0,0,0.010849609375,13.974296874999999,0)" xlink:href="#ba"/><use transform="matrix(0.010849609375,0,0,0.010849609375,26.928730468749997,0)" xlink:href="#bk"/><use transform="matrix(0.010849609375,0,0,0.010849609375,38.657158203125,0)" xlink:href="#bh"/><use transform="matrix(0.010849609375,0,0,0.010849609375,51.79603515625,0)" xlink:href="#bq"/><use transform="matrix(0.010849609375,0,0,0.010849609375,57.5029296875,0)" xlink:href="#aV"/></g><g id="O"><use transform="matrix(0.010849609375,0,0,0.010849609375,0,0)" xlink:href="#bg"/><use transform="matrix(0.010849609375,0,0,0.010849609375,16.99048828125,0)" xlink:href="#bh"/><use transform="matrix(0.010849609375,0,0,0.010849609375,30.129365234374998,0)" xlink:href="#aW"/><use transform="matrix(0.010849609375,0,0,0.010849609375,42.606416015625,0)" xlink:href="#bq"/><use transform="matrix(0.010849609375,0,0,0.010849609375,47.987822265625,0)" xlink:href="#bc"/><use transform="matrix(0.010849609375,0,0,0.010849609375,53.369228515625,0)" xlink:href="#aV"/><use transform="matrix(0.010849609375,0,0,0.010849609375,61.072451171874995,0)" xlink:href="#bi"/></g><path fill="#333" d="M677 24c-213 0-288-135-325-197h-20V0H158v-1490h180v551h14c37-59 106-193 324-193 279 0 474 222 474 576 0 356-194 580-473 580zm-27-161c209 0 317-186 317-421 0-232-105-413-317-413-206 0-314 166-314 413 0 249 111 421 314 421" id="bL"/><g id="P"><use transform="matrix(0.010849609375,0,0,0.010849609375,0,0)" xlink:href="#bx"/><use transform="matrix(0.010849609375,0,0,0.010849609375,15.330498046874999,0)" xlink:href="#bb"/><use transform="matrix(0.010849609375,0,0,0.010849609375,28.024541015624997,0)" xlink:href="#bb"/><use transform="matrix(0.010849609375,0,0,0.010849609375,40.718583984374995,0)" xlink:href="#ba"/><use transform="matrix(0.010849609375,0,0,0.010849609375,53.673017578125,0)" xlink:href="#bF"/><use transform="matrix(0.010849609375,0,0,0.010849609375,67.278427734375,0)" xlink:href="#aV"/><use transform="matrix(0.010849609375,0,0,0.010849609375,74.656162109375,0)" xlink:href="#aW"/><use transform="matrix(0.010849609375,0,0,0.010849609375,87.133212890625,0)" xlink:href="#bL"/><use transform="matrix(0.010849609375,0,0,0.010849609375,100.73862304687502,0)" xlink:href="#bq"/><use transform="matrix(0.010849609375,0,0,0.010849609375,106.12002929687499,0)" xlink:href="#ba"/><use transform="matrix(0.010849609375,0,0,0.010849609375,119.074462890625,0)" xlink:href="#bo"/></g><g id="Q"><use transform="matrix(0.010849609375,0,0,0.010849609375,0,0)" xlink:href="#aU"/><use transform="matrix(0.010849609375,0,0,0.010849609375,14.256386718749999,0)" xlink:href="#aV"/><use transform="matrix(0.010849609375,0,0,0.010849609375,21.308632812499997,0)" xlink:href="#bI"/><use transform="matrix(0.010849609375,0,0,0.010849609375,34.631953124999995,0)" xlink:href="#aX"/><use transform="matrix(0.010849609375,0,0,0.010849609375,42.628115234374995,0)" xlink:href="#ba"/></g><g id="R"><use transform="matrix(0.010849609375,0,0,0.010849609375,0,0)" xlink:href="#bm"/><use transform="matrix(0.010849609375,0,0,0.010849609375,16.231015624999998,0)" xlink:href="#aW"/><use transform="matrix(0.010849609375,0,0,0.010849609375,28.708066406249998,0)" xlink:href="#bb"/><use transform="matrix(0.010849609375,0,0,0.010849609375,41.402109374999995,0)" xlink:href="#bn"/><use transform="matrix(0.010849609375,0,0,0.010849609375,54.540986328124994,0)" xlink:href="#ba"/></g><path fill="#333" d="M763 24c-353 0-583-224-583-531v-983h190v968c0 214 149 370 393 370 243 0 391-156 391-370v-968h190v983c0 307-230 531-581 531" id="bM"/><g id="S"><use transform="matrix(0.010849609375,0,0,0.010849609375,0,0)" xlink:href="#bM"/><use transform="matrix(0.010849609375,0,0,0.010849609375,16.5348046875,0)" xlink:href="#bk"/><use transform="matrix(0.010849609375,0,0,0.010849609375,28.263232421875,0)" xlink:href="#ba"/><use transform="matrix(0.010849609375,0,0,0.010849609375,41.217666015625,0)" xlink:href="#aX"/></g><g id="T"><use transform="matrix(0.010849609375,0,0,0.010849609375,0,0)" xlink:href="#bm"/><use transform="matrix(0.010849609375,0,0,0.010849609375,16.231015624999998,0)" xlink:href="#aW"/><use transform="matrix(0.010849609375,0,0,0.010849609375,28.708066406249998,0)" xlink:href="#bl"/></g><g id="U"><use transform="matrix(0.010849609375,0,0,0.010849609375,0,0)" xlink:href="#bc"/><use transform="matrix(0.010849609375,0,0,0.010849609375,5.3814062499999995,0)" xlink:href="#aV"/></g><g id="V"><use transform="matrix(0.010849609375,0,0,0.010849609375,0,0)" xlink:href="#bL"/><use transform="matrix(0.010849609375,0,0,0.010849609375,13.605410156249999,0)" xlink:href="#ba"/></g><g id="W"><use transform="matrix(0.010849609375,0,0,0.010849609375,0,0)" xlink:href="#br"/><use transform="matrix(0.010849609375,0,0,0.010849609375,13.355869140625,0)" xlink:href="#bk"/><use transform="matrix(0.010849609375,0,0,0.010849609375,25.084296875,0)" xlink:href="#bb"/><use transform="matrix(0.010849609375,0,0,0.010849609375,37.99533203125,0)" xlink:href="#aW"/><use transform="matrix(0.010849609375,0,0,0.010849609375,50.472382812499994,0)" xlink:href="#bq"/><use transform="matrix(0.010849609375,0,0,0.010849609375,55.8537890625,0)" xlink:href="#aW"/><use transform="matrix(0.010849609375,0,0,0.010849609375,68.33083984375,0)" xlink:href="#aV"/><use transform="matrix(0.010849609375,0,0,0.010849609375,75.3830859375,0)" xlink:href="#ba"/><use transform="matrix(0.010849609375,0,0,0.010849609375,88.33751953125,0)" xlink:href="#bp"/><use transform="matrix(0.010849609375,0,0,0.010849609375,101.9429296875,0)" xlink:href="#bo"/></g><g id="X"><use transform="matrix(0.010849609375,0,0,0.010849609375,0,0)" xlink:href="#br"/><use transform="matrix(0.010849609375,0,0,0.010849609375,13.355869140625,0)" xlink:href="#bk"/><use transform="matrix(0.010849609375,0,0,0.010849609375,25.084296875,0)" xlink:href="#bb"/><use transform="matrix(0.010849609375,0,0,0.010849609375,37.99533203125,0)" xlink:href="#aW"/><use transform="matrix(0.010849609375,0,0,0.010849609375,50.472382812499994,0)" xlink:href="#bq"/><use transform="matrix(0.010849609375,0,0,0.010849609375,55.8537890625,0)" xlink:href="#aW"/><use transform="matrix(0.010849609375,0,0,0.010849609375,68.33083984375,0)" xlink:href="#aV"/><use transform="matrix(0.010849609375,0,0,0.010849609375,75.3830859375,0)" xlink:href="#ba"/></g><g id="Y"><use transform="matrix(0.010849609375,0,0,0.010849609375,0,0)" xlink:href="#be"/><use transform="matrix(0.010849609375,0,0,0.010849609375,16.740947265625,0)" xlink:href="#ba"/><use transform="matrix(0.010849609375,0,0,0.010849609375,29.196298828125,0)" xlink:href="#bJ"/><use transform="matrix(0.010849609375,0,0,0.010849609375,41.760146484375,0)" xlink:href="#aV"/></g><g id="Z"><use transform="matrix(0.010849609375,0,0,0.010849609375,0,0)" xlink:href="#bw"/><use transform="matrix(0.010849609375,0,0,0.010849609375,20.07177734375,0)" xlink:href="#bI"/><use transform="matrix(0.010849609375,0,0,0.010849609375,33.39509765625,0)" xlink:href="#bp"/><use transform="matrix(0.010849609375,0,0,0.010849609375,47.000507812500004,0)" xlink:href="#ba"/><use transform="matrix(0.010849609375,0,0,0.010849609375,59.95494140624999,0)" xlink:href="#bq"/></g><g id="aa"><use transform="matrix(0.010849609375,0,0,0.010849609375,0,0)" xlink:href="#bs"/><use transform="matrix(0.010849609375,0,0,0.010849609375,12.56384765625,0)" xlink:href="#ba"/><use transform="matrix(0.010849609375,0,0,0.010849609375,25.084296875,0)" xlink:href="#bd"/><use transform="matrix(0.010849609375,0,0,0.010849609375,37.138212890625,0)" xlink:href="#ba"/><use transform="matrix(0.010849609375,0,0,0.010849609375,50.092646484374995,0)" xlink:href="#bq"/></g><g id="ab"><use transform="matrix(0.010849609375,0,0,0.010849609375,0,0)" xlink:href="#br"/><use transform="matrix(0.010849609375,0,0,0.010849609375,13.355869140625,0)" xlink:href="#aX"/><use transform="matrix(0.010849609375,0,0,0.010849609375,22.068105468749998,0)" xlink:href="#aX"/><use transform="matrix(0.010849609375,0,0,0.010849609375,30.064267578124998,0)" xlink:href="#bI"/><use transform="matrix(0.010849609375,0,0,0.010849609375,43.387587890625,0)" xlink:href="#aX"/></g><g id="ac"><use transform="matrix(0.010849609375,0,0,0.010849609375,0,0)" xlink:href="#bI"/><use transform="matrix(0.010849609375,0,0,0.010849609375,13.3233203125,0)" xlink:href="#aX"/></g><path fill="#333" d="M180 0v-1490h528c311 0 458 177 458 395 0 191-114 278-244 313v14c139 9 302 137 302 371 0 225-148 397-499 397H180zm190-168h350c232 0 321-102 321-231 0-149-120-277-311-277H370v508zm0-668h328c160 0 286-101 286-255 0-129-87-231-280-231H370v486" id="bN"/><g id="ad"><use transform="matrix(0.010849609375,0,0,0.010849609375,0,0)" xlink:href="#bN"/><use transform="matrix(0.010849609375,0,0,0.010849609375,14.5384765625,0)" xlink:href="#ba"/><use transform="matrix(0.010849609375,0,0,0.010849609375,27.492910156249998,0)" xlink:href="#bk"/><use transform="matrix(0.010849609375,0,0,0.010849609375,39.221337890624994,0)" xlink:href="#aV"/></g><g id="ae"><use transform="matrix(0.010849609375,0,0,0.010849609375,0,0)" xlink:href="#bA"/><use transform="matrix(0.010849609375,0,0,0.010849609375,14.071943359375,0)" xlink:href="#bI"/><use transform="matrix(0.010849609375,0,0,0.010849609375,27.395263671875,0)" xlink:href="#bk"/><use transform="matrix(0.010849609375,0,0,0.010849609375,39.12369140625,0)" xlink:href="#bk"/><use transform="matrix(0.010849609375,0,0,0.010849609375,50.85211914062501,0)" xlink:href="#bc"/><use transform="matrix(0.010849609375,0,0,0.010849609375,56.233525390625005,0)" xlink:href="#bL"/><use transform="matrix(0.010849609375,0,0,0.010849609375,69.838935546875,0)" xlink:href="#bq"/><use transform="matrix(0.010849609375,0,0,0.010849609375,75.220341796875,0)" xlink:href="#ba"/></g><g id="af"><use transform="matrix(0.010849609375,0,0,0.010849609375,0,0)" xlink:href="#bx"/><use transform="matrix(0.010849609375,0,0,0.010849609375,15.330498046874999,0)" xlink:href="#bl"/><use transform="matrix(0.010849609375,0,0,0.010849609375,28.458525390625,0)" xlink:href="#bk"/><use transform="matrix(0.010849609375,0,0,0.010849609375,40.186953125,0)" xlink:href="#bf"/><use transform="matrix(0.010849609375,0,0,0.010849609375,57.96946289062501,0)" xlink:href="#ba"/><use transform="matrix(0.010849609375,0,0,0.010849609375,70.923896484375,0)" xlink:href="#aX"/></g><path d="M180 0v-1490h224l606 953c40 63 108 177 176 312-27-437-7-821-13-1265h190V0h-226C860-448 622-778 356-1262c27 476 11 792 15 1262H180" id="bO"/><path d="M613 24c-304 0-509-231-509-576 0-350 205-580 509-580 305 0 511 230 511 580 0 345-206 576-511 576zm0-161c226 0 329-195 329-415 0-222-103-419-329-419-223 0-326 196-326 419 0 220 103 415 326 415" id="bP"/><g id="ag"><use transform="matrix(0.009296875,0,0,0.009296875,0,0)" xlink:href="#bO"/><use transform="matrix(0.009296875,0,0,0.009296875,14.345078124999999,0)" xlink:href="#bP"/></g><path d="M137-103V0h-34v-103L8-248h37l75 118 75-118h37" id="bQ"/><path d="M100-194c63 0 86 42 84 106H49c0 40 14 67 53 68 26 1 43-12 49-29l28 8c-11 28-37 45-77 45C44 4 14-33 15-96c1-61 26-98 85-98zm52 81c6-60-76-77-97-28-3 7-6 17-6 28h103" id="bR"/><path d="M135-143c-3-34-86-38-87 0 15 53 115 12 119 90S17 21 10-45l28-5c4 36 97 45 98 0-10-56-113-15-118-90-4-57 82-63 122-42 12 7 21 19 24 35" id="bS"/><g id="ah"><use transform="matrix(0.05,0,0,0.05,0,0)" xlink:href="#bQ"/><use transform="matrix(0.05,0,0,0.05,10.35,0)" xlink:href="#bR"/><use transform="matrix(0.05,0,0,0.05,20.35,0)" xlink:href="#bS"/></g><path d="M600 0v-610L52-1490h220l295 481c50 82 90 150 130 243 40-96 80-164 128-243l294-481h219L790-610V0H600" id="bT"/><path d="M628 24c-324 0-524-230-524-574 0-343 198-582 503-582 237 0 487 146 487 559v75H286c9 234 145 362 343 362 132 0 231-58 273-172l174 48C1024-91 857 24 628 24zM287-650h624c-17-190-120-322-304-322-192 0-309 151-320 322" id="bU"/><path d="M538 24C308 24 148-78 108-271l171-41c32 123 123 178 257 178 156 0 256-77 256-169 0-77-54-128-164-154l-186-44c-203-48-300-148-300-305 0-192 176-326 414-326 230 0 351 112 402 269l-163 42c-31-80-94-158-238-158-133 0-233 69-233 162 0 83 57 129 188 160l169 40c203 48 298 149 298 302 0 196-179 339-441 339" id="bV"/><g id="ai"><use transform="matrix(0.009296875,0,0,0.009296875,0,0)" xlink:href="#bT"/><use transform="matrix(0.009296875,0,0,0.009296875,11.463046875,0)" xlink:href="#bU"/><use transform="matrix(0.009296875,0,0,0.009296875,22.563515624999997,0)" xlink:href="#bV"/></g><path d="M190 0L58-211 59 0H30v-248h39L202-35l-2-213h31V0h-41" id="bW"/><path d="M100-194c62-1 85 37 85 99 1 63-27 99-86 99S16-35 15-95c0-66 28-99 85-99zM99-20c44 1 53-31 53-75 0-43-8-75-51-75s-53 32-53 75 10 74 51 75" id="bX"/><g id="aj"><use transform="matrix(0.05,0,0,0.05,0,0)" xlink:href="#bW"/><use transform="matrix(0.05,0,0,0.05,12.950000000000001,0)" xlink:href="#bX"/></g><g id="ak"><use transform="matrix(0.009296875,0,0,0.009296875,0,0)" xlink:href="#bT"/><use transform="matrix(0.009296875,0,0,0.009296875,11.463046875,0)" xlink:href="#bU"/><use transform="matrix(0.009296875,0,0,0.009296875,22.563515624999997,0)" xlink:href="#bV"/></g><g id="al"><use transform="matrix(0.05555555555555555,0,0,0.05555555555555555,0,0)" xlink:href="#bQ"/><use transform="matrix(0.05555555555555555,0,0,0.05555555555555555,11.499999999999998,0)" xlink:href="#bR"/><use transform="matrix(0.05555555555555555,0,0,0.05555555555555555,22.611111111111107,0)" xlink:href="#bS"/></g><g id="am"><use transform="matrix(0.05,0,0,0.05,0,0)" xlink:href="#bW"/><use transform="matrix(0.05,0,0,0.05,12.950000000000001,0)" xlink:href="#bX"/></g><path d="M87 75C49 33 22-17 22-94c0-76 28-126 65-167h31c-38 41-64 92-64 168S80 34 118 75H87" id="bY"/><path d="M30-248c118-7 216 8 213 122C240-48 200 0 122 0H30v-248zM63-27c89 8 146-16 146-99s-60-101-146-95v194" id="bZ"/><path d="M101-234c-31-9-42 10-38 44h38v23H63V0H32v-167H5v-23h27c-7-52 17-82 69-68v24" id="ca"/><path d="M141-36C126-15 110 5 73 4 37 3 15-17 15-53c-1-64 63-63 125-63 3-35-9-54-41-54-24 1-41 7-42 31l-33-3c5-37 33-52 76-52 45 0 72 20 72 64v82c-1 20 7 32 28 27v20c-31 9-61-2-59-35zM48-53c0 20 12 33 32 33 41-3 63-29 60-74-43 2-92-5-92 41" id="cb"/><path d="M84 4C-5 8 30-112 23-190h32v120c0 31 7 50 39 49 72-2 45-101 50-169h31l1 190h-30c-1-10 1-25-2-33-11 22-28 36-60 37" id="cc"/><path d="M24 0v-261h32V0H24" id="cd"/><path d="M59-47c-2 24 18 29 38 22v24C64 9 27 4 27-40v-127H5v-23h24l9-43h21v43h35v23H59v120" id="ce"/><path d="M33-261c38 41 65 92 65 168S71 34 33 75H2C39 34 66-17 66-93S39-220 2-261h31" id="cf"/><g id="an"><use transform="matrix(0.05,0,0,0.05,0,0)" xlink:href="#bY"/><use transform="matrix(0.05,0,0,0.05,5.95,0)" xlink:href="#bZ"/><use transform="matrix(0.05,0,0,0.05,18.900000000000002,0)" xlink:href="#bR"/><use transform="matrix(0.05,0,0,0.05,28.900000000000002,0)" xlink:href="#ca"/><use transform="matrix(0.05,0,0,0.05,33.900000000000006,0)" xlink:href="#cb"/><use transform="matrix(0.05,0,0,0.05,43.900000000000006,0)" xlink:href="#cc"/><use transform="matrix(0.05,0,0,0.05,53.900000000000006,0)" xlink:href="#cd"/><use transform="matrix(0.05,0,0,0.05,57.85,0)" xlink:href="#ce"/><use transform="matrix(0.05,0,0,0.05,62.85,0)" xlink:href="#cf"/></g><g id="ao"><use transform="matrix(0.010849609375,0,0,0.010849609375,0,0)" xlink:href="#bg"/><use transform="matrix(0.010849609375,0,0,0.010849609375,16.99048828125,0)" xlink:href="#bh"/><use transform="matrix(0.010849609375,0,0,0.010849609375,30.129365234374998,0)" xlink:href="#ba"/><use transform="matrix(0.010849609375,0,0,0.010849609375,43.083798828125,0)" xlink:href="#aX"/><use transform="matrix(0.010849609375,0,0,0.010849609375,51.796035156249985,0)" xlink:href="#bi"/></g><g id="ap"><use transform="matrix(0.010849609375,0,0,0.010849609375,0,0)" xlink:href="#bs"/><use transform="matrix(0.010849609375,0,0,0.010849609375,12.56384765625,0)" xlink:href="#ba"/><use transform="matrix(0.010849609375,0,0,0.010849609375,25.518281249999998,0)" xlink:href="#bl"/><use transform="matrix(0.010849609375,0,0,0.010849609375,38.64630859375,0)" xlink:href="#bt"/><use transform="matrix(0.010849609375,0,0,0.010849609375,52.273417968749996,0)" xlink:href="#aV"/><use transform="matrix(0.010849609375,0,0,0.010849609375,59.54265625,0)" xlink:href="#bn"/></g><g id="aq"><use transform="matrix(0.010849609375,0,0,0.010849609375,0,0)" xlink:href="#bu"/><use transform="matrix(0.010849609375,0,0,0.010849609375,14.701220703125,0)" xlink:href="#bv"/></g><path fill="#333" d="M645 0H180v-1490h484c435 0 692 280 692 742 0 466-257 748-711 748zM370-168h263c363 0 539-218 539-580 0-358-176-574-521-574H370v1154" id="cg"/><g id="ar"><use transform="matrix(0.010849609375,0,0,0.010849609375,0,0)" xlink:href="#bw"/><use transform="matrix(0.010849609375,0,0,0.010849609375,20.07177734375,0)" xlink:href="#bx"/><use transform="matrix(0.010849609375,0,0,0.010849609375,35.402275390625,0)" xlink:href="#by"/><use transform="matrix(0.010849609375,0,0,0.010849609375,50.5591796875,0)" xlink:href="#bz"/><use transform="matrix(0.010849609375,0,0,0.010849609375,61.441337890625,0)" xlink:href="#bw"/><use transform="matrix(0.010849609375,0,0,0.010849609375,81.513115234375,0)" xlink:href="#br"/><use transform="matrix(0.010849609375,0,0,0.010849609375,94.868984375,0)" xlink:href="#cg"/><use transform="matrix(0.010849609375,0,0,0.010849609375,110.90470703125,0)" xlink:href="#bj"/><use transform="matrix(0.010849609375,0,0,0.010849609375,116.8719921875,0)" xlink:href="#bM"/><use transform="matrix(0.010849609375,0,0,0.010849609375,133.406796875,0)" xlink:href="#bw"/><use transform="matrix(0.010849609375,0,0,0.010849609375,153.47857421875,0)" xlink:href="#bz"/><use transform="matrix(0.010849609375,0,0,0.010849609375,164.36073242187499,0)" xlink:href="#bs"/><use transform="matrix(0.010849609375,0,0,0.010849609375,176.924580078125,0)" xlink:href="#br"/><use transform="matrix(0.010849609375,0,0,0.010849609375,190.28044921875,0)" xlink:href="#be"/><use transform="matrix(0.010849609375,0,0,0.010849609375,207.021396484375,0)" xlink:href="#bB"/><use transform="matrix(0.010849609375,0,0,0.010849609375,222.9377734375,0)" xlink:href="#bC"/><use transform="matrix(0.010849609375,0,0,0.010849609375,237.28095703125004,0)" xlink:href="#bD"/><use transform="matrix(0.010849609375,0,0,0.010849609375,253.7940625,0)" xlink:href="#bo"/></g><g id="at"><use transform="matrix(0.010416666666666668,0,0,0.010416666666666668,0,0)" xlink:href="#bj"/><use transform="matrix(0.010416666666666668,0,0,0.010416666666666668,5.729166666666667,0)" xlink:href="#bk"/></g><g id="au"><use transform="matrix(0.010416666666666668,0,0,0.010416666666666668,0,0)" xlink:href="#bm"/><use transform="matrix(0.010416666666666668,0,0,0.010416666666666668,15.583333333333336,0)" xlink:href="#bh"/><use transform="matrix(0.010416666666666668,0,0,0.010416666666666668,28.19791666666667,0)" xlink:href="#aX"/><use transform="matrix(0.010416666666666668,0,0,0.010416666666666668,36.56250000000001,0)" xlink:href="#aX"/><use transform="matrix(0.010416666666666668,0,0,0.010416666666666668,44.239583333333336,0)" xlink:href="#ba"/><use transform="matrix(0.010416666666666668,0,0,0.010416666666666668,56.67708333333334,0)" xlink:href="#bl"/><use transform="matrix(0.010416666666666668,0,0,0.010416666666666668,69.28125000000001,0)" xlink:href="#aV"/></g><g id="av"><use transform="matrix(0.010416666666666668,0,0,0.010416666666666668,0,0)" xlink:href="#bs"/><use transform="matrix(0.010416666666666668,0,0,0.010416666666666668,12.062500000000002,0)" xlink:href="#ba"/><use transform="matrix(0.010416666666666668,0,0,0.010416666666666668,24.083333333333336,0)" xlink:href="#bd"/><use transform="matrix(0.010416666666666668,0,0,0.010416666666666668,35.65625,0)" xlink:href="#ba"/><use transform="matrix(0.010416666666666668,0,0,0.010416666666666668,48.09374999999999,0)" xlink:href="#bq"/></g><path fill="#333" d="M232-923l-22-567h194l-22 567H232" id="ch"/><g id="aw"><use transform="matrix(0.010416666666666668,0,0,0.010416666666666668,0,0)" xlink:href="#ch"/><use transform="matrix(0.010416666666666668,0,0,0.010416666666666668,6.395833333333334,0)" xlink:href="#bw"/><use transform="matrix(0.010416666666666668,0,0,0.010416666666666668,25.666666666666668,0)" xlink:href="#ba"/><use transform="matrix(0.010416666666666668,0,0,0.010416666666666668,38.10416666666667,0)" xlink:href="#bp"/><use transform="matrix(0.010416666666666668,0,0,0.010416666666666668,51.16666666666667,0)" xlink:href="#bc"/><use transform="matrix(0.010416666666666668,0,0,0.010416666666666668,56.33333333333334,0)" xlink:href="#bh"/><use transform="matrix(0.010416666666666668,0,0,0.010416666666666668,68.94791666666667,0)" xlink:href="#bE"/><use transform="matrix(0.010416666666666668,0,0,0.010416666666666668,87.63541666666667,0)" xlink:href="#ch"/><use transform="matrix(0.010416666666666668,0,0,0.010416666666666668,94.03124999999999,0)" xlink:href="#bo"/></g><g id="ax"><use transform="matrix(0.010416666666666668,0,0,0.010416666666666668,0,0)" xlink:href="#ch"/><use transform="matrix(0.010416666666666668,0,0,0.010416666666666668,6.395833333333334,0)" xlink:href="#aU"/><use transform="matrix(0.010416666666666668,0,0,0.010416666666666668,20.083333333333336,0)" xlink:href="#bc"/><use transform="matrix(0.010416666666666668,0,0,0.010416666666666668,25.250000000000004,0)" xlink:href="#bE"/><use transform="matrix(0.010416666666666668,0,0,0.010416666666666668,43.93750000000001,0)" xlink:href="#bF"/><use transform="matrix(0.010416666666666668,0,0,0.010416666666666668,57.00000000000001,0)" xlink:href="#bq"/><use transform="matrix(0.010416666666666668,0,0,0.010416666666666668,62.16666666666667,0)" xlink:href="#ba"/><use transform="matrix(0.010416666666666668,0,0,0.010416666666666668,74.29166666666667,0)" xlink:href="#ch"/><use transform="matrix(0.010416666666666668,0,0,0.010416666666666668,80.6875,0)" xlink:href="#bo"/></g><g id="ay"><use transform="matrix(0.010416666666666668,0,0,0.010416666666666668,0,0)" xlink:href="#bM"/><use transform="matrix(0.010416666666666668,0,0,0.010416666666666668,15.875000000000002,0)" xlink:href="#bF"/><use transform="matrix(0.010416666666666668,0,0,0.010416666666666668,28.937500000000004,0)" xlink:href="#bp"/><use transform="matrix(0.010416666666666668,0,0,0.010416666666666668,42.00000000000001,0)" xlink:href="#aW"/><use transform="matrix(0.010416666666666668,0,0,0.010416666666666668,53.97916666666667,0)" xlink:href="#aV"/><use transform="matrix(0.010416666666666668,0,0,0.010416666666666668,60.75,0)" xlink:href="#ba"/><use transform="matrix(0.010416666666666668,0,0,0.010416666666666668,73.1875,0)" xlink:href="#aY"/></g><g id="az"><use transform="matrix(0.010416666666666668,0,0,0.010416666666666668,0,0)" xlink:href="#aU"/><use transform="matrix(0.010416666666666668,0,0,0.010416666666666668,13.687500000000002,0)" xlink:href="#ba"/><use transform="matrix(0.010416666666666668,0,0,0.010416666666666668,26.125000000000004,0)" xlink:href="#aV"/></g><g id="aA"><use transform="matrix(0.010416666666666668,0,0,0.010416666666666668,0,0)" xlink:href="#bw"/><use transform="matrix(0.010416666666666668,0,0,0.010416666666666668,19.270833333333336,0)" xlink:href="#bI"/><use transform="matrix(0.010416666666666668,0,0,0.010416666666666668,32.0625,0)" xlink:href="#bp"/><use transform="matrix(0.010416666666666668,0,0,0.010416666666666668,45.12499999999999,0)" xlink:href="#ba"/><use transform="matrix(0.010416666666666668,0,0,0.010416666666666668,57.5625,0)" xlink:href="#bq"/></g><g id="aB"><use transform="matrix(0.010416666666666668,0,0,0.010416666666666668,0,0)" xlink:href="#aV"/><use transform="matrix(0.010416666666666668,0,0,0.010416666666666668,6.770833333333336,0)" xlink:href="#bI"/></g><g id="aC"><use transform="matrix(0.010416666666666668,0,0,0.010416666666666668,0,0)" xlink:href="#ch"/><use transform="matrix(0.010416666666666668,0,0,0.010416666666666668,6.395833333333334,0)" xlink:href="#bw"/><use transform="matrix(0.010416666666666668,0,0,0.010416666666666668,25.666666666666668,0)" xlink:href="#ba"/><use transform="matrix(0.010416666666666668,0,0,0.010416666666666668,38.10416666666667,0)" xlink:href="#bp"/><use transform="matrix(0.010416666666666668,0,0,0.010416666666666668,51.16666666666667,0)" xlink:href="#bc"/><use transform="matrix(0.010416666666666668,0,0,0.010416666666666668,56.33333333333334,0)" xlink:href="#bh"/><use transform="matrix(0.010416666666666668,0,0,0.010416666666666668,68.94791666666667,0)" xlink:href="#bE"/><use transform="matrix(0.010416666666666668,0,0,0.010416666666666668,87.63541666666667,0)" xlink:href="#ch"/></g><g id="aD"><use transform="matrix(0.010416666666666668,0,0,0.010416666666666668,0,0)" xlink:href="#ch"/><use transform="matrix(0.010416666666666668,0,0,0.010416666666666668,4.708333333333334,0)" xlink:href="#bx"/><use transform="matrix(0.010416666666666668,0,0,0.010416666666666668,19.427083333333336,0)" xlink:href="#bp"/><use transform="matrix(0.010416666666666668,0,0,0.010416666666666668,32.59375000000001,0)" xlink:href="#bd"/><use transform="matrix(0.010416666666666668,0,0,0.010416666666666668,44.47916666666668,0)" xlink:href="#aW"/><use transform="matrix(0.010416666666666668,0,0,0.010416666666666668,56.45833333333334,0)" xlink:href="#bl"/><use transform="matrix(0.010416666666666668,0,0,0.010416666666666668,69.06250000000001,0)" xlink:href="#bb"/><use transform="matrix(0.010416666666666668,0,0,0.010416666666666668,81.25000000000001,0)" xlink:href="#ba"/><use transform="matrix(0.010416666666666668,0,0,0.010416666666666668,93.68750000000001,0)" xlink:href="#bp"/><use transform="matrix(0.010416666666666668,0,0,0.010416666666666668,106.75000000000001,0)" xlink:href="#ch"/></g><g id="aE"><use transform="matrix(0.010849609375,0,0,0.010849609375,0,0)" xlink:href="#br"/><use transform="matrix(0.010849609375,0,0,0.010849609375,13.355869140625,0)" xlink:href="#bl"/><use transform="matrix(0.010849609375,0,0,0.010849609375,26.483896484375,0)" xlink:href="#bp"/></g></defs></g></svg>